G04 DipTrace 3.3.1.2*
G04 BottomMask.gbr*
%MOIN*%
G04 #@! TF.FileFunction,Soldermask,Bot*
G04 #@! TF.Part,Single*
%AMOUTLINE1*
4,1,4,
0.0,0.069601,
0.069601,0.0,
0.0,-0.069601,
-0.069601,0.0,
0.0,0.069601,
0*%
%AMOUTLINE4*
4,1,4,
-0.06723,0.018014,
0.018014,0.06723,
0.06723,-0.018014,
-0.018014,-0.06723,
-0.06723,0.018014,
0*%
%AMOUTLINE7*
4,1,4,
-0.037908,0.058373,
0.058373,0.037908,
0.037908,-0.058373,
-0.058373,-0.037908,
-0.037908,0.058373,
0*%
%AMOUTLINE10*
4,1,4,
-0.066195,-0.021508,
-0.021508,0.066195,
0.066195,0.021508,
0.021508,-0.066195,
-0.066195,-0.021508,
0*%
%AMOUTLINE13*
4,1,4,
-0.057014,-0.039922,
-0.039922,0.057014,
0.057014,0.039922,
0.039922,-0.057014,
-0.057014,-0.039922,
0*%
%AMOUTLINE16*
4,1,4,
-0.039922,-0.057014,
-0.057014,0.039922,
0.039922,0.057014,
0.057014,-0.039922,
-0.039922,-0.057014,
0*%
%AMOUTLINE19*
4,1,4,
0.029415,0.06308,
0.06308,-0.029415,
-0.029415,-0.06308,
-0.06308,0.029415,
0.029415,0.06308,
0*%
%AMOUTLINE22*
4,1,4,
-0.035436,0.035436,
0.035436,0.035436,
0.035436,-0.035436,
-0.035436,-0.035436,
-0.035436,0.035436,
0*%
%ADD39C,0.1*%
%ADD40C,0.11811*%
%ADD41C,0.4*%
%ADD57C,0.082683*%
%ADD59R,0.082683X0.082683*%
%ADD61O,0.08662X0.185045*%
%ADD63O,0.20473X0.08662*%
%ADD65O,0.185045X0.08662*%
%ADD67C,0.106305*%
%ADD69R,0.06725X0.06725*%
%ADD71C,0.09288*%
%ADD73C,0.066935*%
%ADD75R,0.066935X0.066935*%
%ADD77C,0.07788*%
%ADD79C,0.15788*%
%ADD81R,0.070872X0.070872*%
%ADD83C,0.070872*%
%ADD85R,0.05788X0.05788*%
%ADD87C,0.05788*%
%ADD89C,0.06788*%
%ADD91C,0.06788*%
%ADD93C,0.098431*%
%ADD95C,0.06725*%
%ADD105OUTLINE1*%
%ADD108OUTLINE4*%
%ADD111OUTLINE7*%
%ADD114OUTLINE10*%
%ADD117OUTLINE13*%
%ADD120OUTLINE16*%
%ADD123OUTLINE19*%
%ADD126OUTLINE22*%
%FSLAX26Y26*%
G04*
G70*
G90*
G75*
G01*
G04 BotMask*
%LPD*%
D95*
X5125916Y2990947D3*
X5025916D3*
X4925916D3*
X4825916D3*
X4725916D3*
X4625916D3*
X4525916D3*
X4425916D3*
X4325916D3*
X4225916D3*
X4125916D3*
X4025916D3*
X5125916Y2890947D3*
Y2790947D3*
Y2690947D3*
X3925916Y2940947D3*
Y2840947D3*
Y2740947D3*
Y2640947D3*
Y2540947D3*
Y2440947D3*
X4375916Y2890947D3*
X4475916D3*
X5125916Y2390947D3*
X5025916D3*
X4925916D3*
X4825916D3*
X4725916D3*
X4625916D3*
X4425916D3*
X4325916D3*
X4125916D3*
X4025916D3*
X4225916D3*
X4525916D3*
D105*
X1240916Y1455982D3*
D93*
X1338352Y1358546D3*
X1435787Y1261110D3*
D108*
X3845915Y925946D3*
D93*
X3965249Y994844D3*
X4084583Y1063741D3*
D91*
X2385916Y1805947D3*
D89*
Y1405947D3*
D87*
X2550916Y1030947D3*
D85*
Y1130947D3*
D91*
X3435916Y1415947D3*
D89*
Y1815947D3*
D87*
Y2083451D3*
D85*
Y1983451D3*
D91*
X1150916Y1930947D3*
D89*
X750916D3*
D87*
X968423Y1678440D3*
D85*
Y1578440D3*
D83*
X2095916Y1805947D3*
D81*
Y1405947D3*
D91*
X3726751Y1415947D3*
D89*
Y1815947D3*
D87*
Y2083451D3*
D85*
Y1983451D3*
D91*
X4017585Y1415947D3*
D89*
Y1815947D3*
D87*
Y2083451D3*
D85*
Y1983451D3*
D91*
X4308419Y1415947D3*
D89*
Y1815947D3*
D87*
Y2083451D3*
D85*
Y1983451D3*
D79*
X3550916Y3845947D3*
Y4545947D3*
D77*
X3000916Y3795947D3*
X2900916D3*
X2800916D3*
X2700916D3*
X2600916D3*
X2500916D3*
X2400916D3*
X2300916D3*
X2200916D3*
X2100916D3*
X2000916D3*
X1900916D3*
X3000916Y4595947D3*
X2900916D3*
X2800916D3*
X2700916D3*
X2600916D3*
X2500916D3*
X2400916D3*
X2300916D3*
X2200916D3*
X2100916D3*
X2000916D3*
X1900916D3*
X3100916D3*
X3200916D3*
X3300916D3*
X3400916D3*
D39*
X1750916Y3845947D3*
Y4545947D3*
D91*
X3810916Y1245947D3*
D89*
X4210916D3*
D87*
X4430916Y1220947D3*
D85*
Y1120947D3*
D75*
X3665916Y2940947D3*
D73*
Y2840947D3*
Y2740947D3*
Y2640947D3*
Y2540947D3*
Y2440947D3*
D71*
X2655916Y1350947D3*
X2755916D3*
X2855916D3*
D69*
X3105916Y3305947D3*
D95*
Y3205947D3*
Y3105947D3*
Y3005947D3*
D69*
Y2405947D3*
D95*
Y2505947D3*
Y2605947D3*
D67*
X1530916Y3355947D3*
Y3155947D3*
Y2955947D3*
Y2755947D3*
Y2555947D3*
Y2355947D3*
D40*
X1380916Y3505947D3*
X3130916D3*
Y2205947D3*
X1380916D3*
D75*
X1045916Y3255947D3*
D73*
Y3155947D3*
Y3055947D3*
D75*
Y2660947D3*
D73*
Y2560947D3*
Y2460947D3*
D111*
X2390074Y772439D3*
D93*
X2524858Y743790D3*
D65*
X2970916Y730947D3*
D63*
Y967167D3*
D61*
X3155955Y849057D3*
D114*
X4790916Y1810947D3*
D93*
X4853474Y1933724D3*
X4916032Y2056500D3*
D69*
X4355916Y4470947D3*
D95*
Y4370947D3*
Y4270947D3*
Y4170947D3*
Y4070947D3*
Y3970947D3*
D69*
X3955916Y4470947D3*
D95*
Y4370947D3*
Y4270947D3*
Y4170947D3*
Y4070947D3*
Y3970947D3*
D59*
X2155916Y4910947D3*
D57*
X2255916D3*
X2355916D3*
D117*
X755916Y3350946D3*
D93*
X731988Y3215244D3*
D120*
X725916Y2595947D3*
D93*
X749844Y2460246D3*
D83*
X3425916Y4920947D3*
D81*
X3825916D3*
D123*
X5060915Y3330946D3*
D93*
X5013787Y3460431D3*
X4966658Y3589917D3*
X4919529Y3719402D3*
X4872400Y3848887D3*
X4825272Y3978372D3*
D83*
X1775916Y1805947D3*
D81*
Y1405947D3*
D83*
X4580916Y2110947D3*
D81*
Y1710947D3*
D83*
X3625916Y1205947D3*
D126*
X3225916D3*
D75*
X3425916Y3310947D3*
D73*
Y3210947D3*
Y3110947D3*
Y3010947D3*
D41*
X2895916Y5015947D3*
M02*
