M48
INCH
T01C0.0197
T02C0.028
T03C0.0354
T04C0.038
T05C0.0394
T06C0.04
T07C0.0433
T08C0.0472
T09C0.048
T10C0.0984
T11C0.1
T12C0.1181
T13C0.4
%
T01
X+042520Y+037841
X+040051Y+035800
X+041259Y+034159
X+039067Y+041282
X+033009Y+037401
X+021009Y+044201
X+012329Y+027559
X+017759Y+017158
X+044309Y+013068
X+046319Y+017733
X+048751Y+021993
T02
X+025509Y+010309
X+025509Y+011309
X+034359Y+019835
X+034359Y+020835
X+037268Y+020835
X+037268Y+019835
X+040176Y+019835
X+040176Y+020835
X+043084Y+020835
X+043084Y+019835
X+044309Y+012209
X+044309Y+011209
X+009684Y+015784
X+009684Y+016784
T03
X+020959Y+018059
X+017759Y+018059
X+017759Y+014059
X+020959Y+014059
X+032259Y+012059
X+036259Y+012059
X+045809Y+017109
X+045809Y+021109
X+036659Y+024409
X+036659Y+025409
X+036659Y+026409
X+036659Y+027409
X+036659Y+028409
X+036659Y+029409
X+034259Y+030109
X+034259Y+031109
X+034259Y+032109
X+034259Y+033109
X+034259Y+049209
X+038259Y+049209
X+010459Y+032559
X+010459Y+031559
X+010459Y+030559
X+010459Y+026609
X+010459Y+025609
X+010459Y+024609
T04
X+023859Y+018059
X+023859Y+014059
X+034359Y+014159
X+037268Y+014159
X+038109Y+012459
X+040176Y+014159
X+042109Y+012459
X+043084Y+014159
X+043084Y+018159
X+040176Y+018159
X+037268Y+018159
X+034359Y+018159
X+011509Y+019309
X+007509Y+019309
T05
X+051259Y+029909
X+050259Y+029909
X+049259Y+029909
X+048259Y+029909
X+047259Y+029909
X+046259Y+029909
X+045259Y+029909
X+044259Y+029909
X+043259Y+029909
X+042259Y+029909
X+041259Y+029909
X+040259Y+029909
X+039259Y+029409
X+039259Y+028409
X+039259Y+027409
X+039259Y+026409
X+039259Y+025409
X+039259Y+024409
X+040259Y+023909
X+041259Y+023909
X+042259Y+023909
X+043259Y+023909
X+044259Y+023909
X+045259Y+023909
X+046259Y+023909
X+047259Y+023909
X+048259Y+023909
X+049259Y+023909
X+050259Y+023909
X+051259Y+023909
X+051259Y+026909
X+051259Y+027909
X+051259Y+028909
X+044759Y+028909
X+043759Y+028909
X+043559Y+039709
X+043559Y+040709
X+043559Y+041709
X+043559Y+042709
X+043559Y+043709
X+043559Y+044709
X+039559Y+044709
X+039559Y+043709
X+039559Y+042709
X+039559Y+041709
X+039559Y+040709
X+039559Y+039709
X+034009Y+045959
X+033009Y+045959
X+032009Y+045959
X+031009Y+045959
X+030009Y+045959
X+029009Y+045959
X+028009Y+045959
X+027009Y+045959
X+026009Y+045959
X+025009Y+045959
X+024009Y+045959
X+023009Y+045959
X+022009Y+045959
X+021009Y+045959
X+020009Y+045959
X+019009Y+045959
X+019009Y+037959
X+020009Y+037959
X+021009Y+037959
X+022009Y+037959
X+023009Y+037959
X+024009Y+037959
X+025009Y+037959
X+026009Y+037959
X+027009Y+037959
X+028009Y+037959
X+029009Y+037959
X+030009Y+037959
X+031059Y+033059
X+031059Y+032059
X+031059Y+031059
X+031059Y+030059
X+031059Y+026059
X+031059Y+025059
X+031059Y+024059
X+030300Y+009672G85X+029119Y+009672
X+031560Y+007998G85X+031560Y+008983
X+030201Y+007309G85X+029217Y+007309
T06
X+026559Y+013509
X+027559Y+013509
X+028559Y+013509
T07
X+021559Y+049109
X+022559Y+049109
X+023559Y+049109
T08
X+015309Y+033559
X+015309Y+031559
X+015309Y+029559
X+015309Y+027559
X+015309Y+025559
X+015309Y+023559
T09
X+012409Y+014560
X+013384Y+013585
X+014358Y+012611
X+023901Y+007724
X+025249Y+007438
X+038459Y+009259
X+039652Y+009948
X+040846Y+010637
X+047909Y+018109
X+048535Y+019337
X+049160Y+020565
X+050609Y+033309
X+050138Y+034604
X+049667Y+035899
X+049195Y+037194
X+048724Y+038489
X+048253Y+039784
X+007559Y+033509
X+007320Y+032152
X+007259Y+025959
X+007498Y+024602
T10
X+035509Y+038459
X+035509Y+045459
T11
X+017509Y+038459
X+017509Y+045459
T12
X+013809Y+035059
X+013809Y+022059
X+031309Y+022059
X+031309Y+035059
T13
X+028959Y+050159
T00
M30
