G04 DipTrace 3.3.1.2*
G04 Top.gbr*
%MOIN*%
G04 #@! TF.FileFunction,Copper,L1,Top*
G04 #@! TF.Part,Single*
%AMOUTLINE0*
4,1,4,
0.0,0.064029,
0.064029,0.0,
0.0,-0.064029,
-0.064029,0.0,
0.0,0.064029,
0*%
%AMOUTLINE3*
4,1,4,
-0.061848,0.016572,
0.016572,0.061848,
0.061848,-0.016572,
-0.016572,-0.061848,
-0.061848,0.016572,
0*%
%AMOUTLINE6*
4,1,4,
-0.034873,0.0537,
0.0537,0.034873,
0.034873,-0.0537,
-0.0537,-0.034873,
-0.034873,0.0537,
0*%
%AMOUTLINE9*
4,1,4,
-0.060896,-0.019786,
-0.019786,0.060896,
0.060896,0.019786,
0.019786,-0.060896,
-0.060896,-0.019786,
0*%
%AMOUTLINE12*
4,1,4,
-0.05245,-0.036726,
-0.036726,0.05245,
0.05245,0.036726,
0.036726,-0.05245,
-0.05245,-0.036726,
0*%
%AMOUTLINE15*
4,1,4,
-0.036726,-0.05245,
-0.05245,0.036726,
0.036726,0.05245,
0.05245,-0.036726,
-0.036726,-0.05245,
0*%
%AMOUTLINE18*
4,1,4,
0.02706,0.05803,
0.05803,-0.02706,
-0.02706,-0.05803,
-0.05803,0.02706,
0.02706,0.05803,
0*%
%AMOUTLINE21*
4,1,4,
-0.031496,0.031496,
0.031496,0.031496,
0.031496,-0.031496,
-0.031496,-0.031496,
-0.031496,0.031496,
0*%
G04 #@! TA.AperFunction,Conductor*
%ADD13C,0.012992*%
G04 #@! TA.AperFunction,ComponentPad*
%ADD15C,0.05937*%
%ADD16C,0.090551*%
%ADD17C,0.06*%
%ADD18C,0.06*%
%ADD19C,0.05*%
%ADD20R,0.05X0.05*%
%ADD21C,0.062992*%
%ADD22R,0.062992X0.062992*%
%ADD23C,0.15*%
%ADD24C,0.07*%
%ADD25R,0.059055X0.059055*%
%ADD26C,0.059055*%
%ADD27C,0.085*%
%ADD28R,0.05937X0.05937*%
%ADD29C,0.098425*%
%ADD30O,0.177165X0.07874*%
%ADD31O,0.19685X0.07874*%
%ADD32O,0.07874X0.177165*%
%ADD34R,0.074803X0.074803*%
%ADD35C,0.074803*%
%ADD36R,0.051181X0.059055*%
G04 #@! TA.AperFunction,ViaPad*
%ADD37C,0.035685*%
G04 #@! TA.AperFunction,ComponentPad*
%ADD104OUTLINE0*%
%ADD107OUTLINE3*%
%ADD110OUTLINE6*%
%ADD113OUTLINE9*%
%ADD116OUTLINE12*%
%ADD119OUTLINE15*%
%ADD122OUTLINE18*%
%ADD125OUTLINE21*%
%FSLAX26Y26*%
G04*
G70*
G90*
G75*
G01*
G04 Top*
%LPD*%
X1530916Y2555947D2*
D13*
X1412747D1*
X1407747Y2560947D1*
X1045916D1*
X917365D1*
X816664Y2460246D1*
X749844D1*
X1530916Y3155947D2*
X1045916D1*
X943267D1*
X883970Y3215244D1*
X731988D1*
X3100916Y4595947D2*
X3046428Y4650435D1*
X2516428D1*
X2255916Y4910947D1*
X1045916Y2460947D2*
X1150916Y2355947D1*
X1530916D1*
X1045916Y3055947D2*
X1430916D1*
X1530916Y2955947D1*
X4308419Y1415947D2*
X4017585D1*
X4580916Y2110947D2*
X4635363Y2056500D1*
X4916032D1*
X4125916Y2990947D2*
X4025089Y2890120D1*
X3221743D1*
X3105916Y3005947D1*
X4251979Y3784124D2*
X4316742Y3848887D1*
X4872400D1*
X4355916Y4170947D2*
X3955916D1*
X2385916Y1805947D2*
X2095916D1*
X4125916Y3415947D2*
X3925916D1*
X3435916Y1415947D2*
X2820916D1*
X2755916Y1350947D1*
X3726751Y1415947D2*
X3435916D1*
X4017585D2*
X3726751D1*
X2095916Y1805947D2*
X1775916D1*
X2100916Y4420120D2*
X3905089D1*
X3955916Y4470947D1*
X4525916Y2390947D2*
X4426822Y2291853D1*
X3644318D1*
X3435916Y2083451D1*
X4625916Y2390947D2*
X4500837Y2265868D1*
X3909168D1*
X3726751Y2083451D1*
X4725916Y2390947D2*
X4574853Y2239884D1*
X4174018D1*
X4017585Y2083451D1*
X4825916Y2390947D2*
X4648869Y2213900D1*
X4334404D1*
X4308419Y2187914D1*
Y2083451D1*
X4430916Y1306782D2*
X4631900Y1507766D1*
Y1773278D1*
X3965249Y994844D2*
X3900485Y1059608D1*
X3372255D1*
X3225916Y1205947D1*
X4853474Y1933724D2*
X4606900D1*
X4580916Y1907740D1*
Y1710947D1*
X2800916Y3795947D2*
X3010373Y3586490D1*
X3670916D1*
Y3530947D1*
X4210916Y1245947D2*
X4335916Y1120947D1*
X4430916D1*
X3665916Y2940947D2*
X3925916D1*
X3665916Y2840947D2*
X3925916D1*
X3665916Y2740947D2*
X3925916D1*
X3665916Y2640947D2*
X3925916D1*
X3665916Y2540947D2*
X3925916D1*
X3665916Y2440947D2*
X3925916D1*
X2900916Y3795947D2*
X3020062Y3676801D1*
X3825125D1*
X3851113Y3650813D1*
Y3415947D1*
X3300916Y3740116D2*
X3851113D1*
X3877097Y3714132D1*
Y3556931D1*
X3903081Y3530947D1*
X4106113D1*
X5125916Y2390947D2*
X4896900Y2161931D1*
X4529931D1*
X4503947Y2135947D1*
Y1704427D1*
X4477960Y1678440D1*
X968423D1*
X3105916Y3205947D2*
X3204558D1*
X3209558Y3210947D1*
X3425916D1*
X4499932D1*
X4525916Y3184963D1*
Y2990947D1*
X3105916Y3105947D2*
X3204558D1*
X3209558Y3110947D1*
X3425916D1*
X4349105D1*
X4375089Y3084963D1*
Y2966104D1*
X4401073Y2940120D1*
X4575089D1*
X4625916Y2990947D1*
X2000916Y3795947D2*
X2175916Y3970947D1*
X3955916D1*
X1900916Y3795947D2*
X2175916Y4070947D1*
X3955916D1*
X1775916Y1405947D2*
X1465877D1*
X1418477Y1358546D1*
X1338352D1*
X4875089Y2199262D2*
X4863743Y2187916D1*
X4383893D1*
X4357908Y2161931D1*
Y1741758D1*
X4331924Y1715774D1*
X1775916D1*
X2000916Y4595947D2*
Y4396931D1*
X2026900Y4370947D1*
X3955916D1*
X3825916Y4920947D2*
X3651428Y4746459D1*
X2520404D1*
X2355916Y4910947D1*
X4005089Y3579963D2*
X4180916D1*
Y3530947D1*
X3906743Y4128152D2*
Y4194136D1*
X3932727Y4220120D1*
X4305089D1*
X4355916Y4270947D1*
X2655916Y1350947D2*
X2150916D1*
X2095916Y1405947D1*
X3105916Y3305947D2*
X3332294D1*
X3337294Y3310947D1*
X3425916D1*
X3845915Y925946D2*
X3862486D1*
Y1030947D1*
X2550916D1*
X4355916Y4270947D2*
X4532697D1*
X4825272Y3978372D1*
X2095916Y1405947D2*
X2045880Y1455982D1*
X1240916D1*
X3425916Y3310947D2*
X3596113Y3481144D1*
Y3530947D1*
X1530916Y2755947D2*
X1232908D1*
D37*
X4251979Y3784124D3*
X4125916Y3415947D3*
X2100916Y4420120D3*
X1775916Y1715774D3*
X4875089Y2199262D3*
X4631900Y1773278D3*
X4430916Y1306782D3*
X3300916Y3740116D3*
X4005089Y3579963D3*
X3906743Y4128152D3*
X1232908Y2755947D3*
D15*
X5125916Y2990947D3*
X5025916D3*
X4925916D3*
X4825916D3*
X4725916D3*
X4625916D3*
X4525916D3*
X4425916D3*
X4325916D3*
X4225916D3*
X4125916D3*
X4025916D3*
X5125916Y2890947D3*
Y2790947D3*
Y2690947D3*
X3925916Y2940947D3*
Y2840947D3*
Y2740947D3*
Y2640947D3*
Y2540947D3*
Y2440947D3*
X4375916Y2890947D3*
X4475916D3*
X5125916Y2390947D3*
X5025916D3*
X4925916D3*
X4825916D3*
X4725916D3*
X4625916D3*
X4425916D3*
X4325916D3*
X4125916D3*
X4025916D3*
X4225916D3*
X4525916D3*
D104*
X1240916Y1455982D3*
D16*
X1338352Y1358546D3*
X1435787Y1261110D3*
D107*
X3845915Y925946D3*
D16*
X3965249Y994844D3*
X4084583Y1063741D3*
D17*
X2385916Y1805947D3*
D18*
Y1405947D3*
D19*
X2550916Y1030947D3*
D20*
Y1130947D3*
D17*
X3435916Y1415947D3*
D18*
Y1815947D3*
D19*
Y2083451D3*
D20*
Y1983451D3*
D17*
X1150916Y1930947D3*
D18*
X750916D3*
D19*
X968423Y1678440D3*
D20*
Y1578440D3*
D21*
X2095916Y1805947D3*
D22*
Y1405947D3*
D17*
X3726751Y1415947D3*
D18*
Y1815947D3*
D19*
Y2083451D3*
D20*
Y1983451D3*
D17*
X4017585Y1415947D3*
D18*
Y1815947D3*
D19*
Y2083451D3*
D20*
Y1983451D3*
D17*
X4308419Y1415947D3*
D18*
Y1815947D3*
D19*
Y2083451D3*
D20*
Y1983451D3*
D23*
X3550916Y3845947D3*
Y4545947D3*
D24*
X3000916Y3795947D3*
X2900916D3*
X2800916D3*
X2700916D3*
X2600916D3*
X2500916D3*
X2400916D3*
X2300916D3*
X2200916D3*
X2100916D3*
X2000916D3*
X1900916D3*
X3000916Y4595947D3*
X2900916D3*
X2800916D3*
X2700916D3*
X2600916D3*
X2500916D3*
X2400916D3*
X2300916D3*
X2200916D3*
X2100916D3*
X2000916D3*
X1900916D3*
X3100916D3*
X3200916D3*
X3300916D3*
X3400916D3*
D17*
X3810916Y1245947D3*
D18*
X4210916D3*
D19*
X4430916Y1220947D3*
D20*
Y1120947D3*
D25*
X3665916Y2940947D3*
D26*
Y2840947D3*
Y2740947D3*
Y2640947D3*
Y2540947D3*
Y2440947D3*
D27*
X2655916Y1350947D3*
X2755916D3*
X2855916D3*
D28*
X3105916Y3305947D3*
D15*
Y3205947D3*
Y3105947D3*
Y3005947D3*
D28*
Y2405947D3*
D15*
Y2505947D3*
Y2605947D3*
D29*
X1530916Y3355947D3*
Y3155947D3*
Y2955947D3*
Y2755947D3*
Y2555947D3*
Y2355947D3*
D25*
X1045916Y3255947D3*
D26*
Y3155947D3*
Y3055947D3*
D25*
Y2660947D3*
D26*
Y2560947D3*
Y2460947D3*
D110*
X2390074Y772439D3*
D16*
X2524858Y743790D3*
D30*
X2970916Y730947D3*
D31*
Y967167D3*
D32*
X3155955Y849057D3*
D113*
X4790916Y1810947D3*
D16*
X4853474Y1933724D3*
X4916032Y2056500D3*
D28*
X4355916Y4470947D3*
D15*
Y4370947D3*
Y4270947D3*
Y4170947D3*
Y4070947D3*
Y3970947D3*
D28*
X3955916Y4470947D3*
D15*
Y4370947D3*
Y4270947D3*
Y4170947D3*
Y4070947D3*
Y3970947D3*
D34*
X2155916Y4910947D3*
D35*
X2255916D3*
X2355916D3*
D116*
X755916Y3350946D3*
D16*
X731988Y3215244D3*
D119*
X725916Y2595947D3*
D16*
X749844Y2460246D3*
D36*
X3670916Y3530947D3*
X3596113D3*
X4180916D3*
X4106113D3*
X3851113Y3415947D3*
X3925916D3*
D21*
X3425916Y4920947D3*
D22*
X3825916D3*
D122*
X5060915Y3330946D3*
D16*
X5013787Y3460431D3*
X4966658Y3589917D3*
X4919529Y3719402D3*
X4872400Y3848887D3*
X4825272Y3978372D3*
D21*
X1775916Y1805947D3*
D22*
Y1405947D3*
D21*
X4580916Y2110947D3*
D22*
Y1710947D3*
D21*
X3625916Y1205947D3*
D125*
X3225916D3*
D25*
X3425916Y3310947D3*
D26*
Y3210947D3*
Y3110947D3*
Y3010947D3*
M02*
