G04 DipTrace 3.3.1.2*
G04 TopSilk.gbr*
%MOIN*%
G04 #@! TF.FileFunction,Legend,Top*
G04 #@! TF.Part,Single*
%ADD10C,0.009843*%
%ADD14C,0.005*%
%ADD12C,0.003*%
%ADD97C,0.00772*%
%ADD98C,0.010807*%
%ADD99C,0.009264*%
%ADD100C,0.004632*%
%ADD101C,0.006176*%
%ADD102C,0.013895*%
%ADD103C,0.004*%
%FSLAX26Y26*%
G04*
G70*
G90*
G75*
G01*
G04 TopSilk*
%LPD*%
X5175916Y3015947D2*
D14*
X5150916Y3040947D1*
X5100916D2*
X5075916Y3015947D1*
X5000916Y3040947D2*
X4975916Y3015947D1*
X4950916Y3040947D1*
X4875916Y3015947D2*
X4850916Y3040947D1*
X4800916D2*
X4775916Y3015947D1*
X4750916Y3040947D1*
X4700916D2*
X4675916Y3015947D1*
X4650916Y3040947D1*
X4600916D2*
X4575916Y3015947D1*
X4550916Y3040947D1*
X4500916D2*
X4475916Y3015947D1*
X4450916Y3040947D1*
X4400916D2*
X4375916Y3015947D1*
X4350916Y3040947D1*
X4300916D2*
X4275916Y3015947D1*
X4200916Y3040947D2*
X4175916Y3015947D1*
X4150916Y3040947D1*
X4100916D2*
X4075916Y3015947D1*
X4050916Y3040947D1*
X4000916D2*
X3975916Y3015947D1*
Y2965947D1*
X4000916Y2940947D1*
X4050916D1*
X4075916Y2965947D1*
X4100916Y2940947D1*
X4150916D1*
X4175916Y2965947D1*
X4200916Y2940947D1*
X4250916D1*
X4275916Y2965947D1*
X4300916Y2940947D1*
X4350916D1*
X4375916Y2965947D1*
X4400916Y2940947D1*
X4450916D1*
X4475916Y2965947D1*
X4500916Y2940947D1*
X4550916D1*
X4575916Y2965947D1*
X4600916Y2940947D1*
X4650916D1*
X4675916Y2965947D1*
X4700916Y2940947D1*
X4750916D1*
X4775916Y2965947D1*
X4800916Y2940947D1*
X4850916D1*
X4875916Y2965947D1*
X4900916Y2940947D1*
X4950916D1*
X4975916Y2965947D1*
X5000916Y2940947D1*
X5050916D1*
X5075916Y2965947D1*
X5100916Y2940947D1*
X5150916D1*
X5175916Y2965947D1*
Y2415947D2*
X5150916Y2440947D1*
X4000916D2*
X3975916Y2415947D1*
Y2365947D1*
X5150916Y2340947D2*
X5175916Y2365947D1*
X3950916Y2990947D2*
X3900916D1*
X3875916Y2965947D1*
Y2915947D2*
X3900916Y2890947D1*
X3875916Y2865947D1*
Y2815947D2*
X3900916Y2790947D1*
X3875916Y2765947D1*
Y2715947D2*
X3900916Y2690947D1*
X3875916Y2665947D1*
Y2615947D2*
X3900916Y2590947D1*
X3875916Y2565947D1*
Y2515947D2*
X3900916Y2490947D1*
X3875916Y2465947D1*
Y2415947D2*
X3900916Y2390947D1*
X3950916D1*
X3975916Y2415947D1*
Y2465947D1*
X3950916Y2490947D1*
X3975916Y2515947D1*
Y2565947D1*
X3950916Y2590947D1*
X3975916Y2615947D1*
Y2665947D1*
X3950916Y2690947D1*
X3975916Y2715947D1*
Y2765947D1*
X3950916Y2790947D1*
X3975916Y2815947D1*
Y2865947D1*
X3950916Y2890947D1*
X3975916Y2915947D1*
Y2965947D1*
X3950916Y2990947D1*
X4325916Y2915947D2*
X4350916Y2940947D1*
X4400916D1*
X4425916Y2915947D1*
X4450916Y2940947D1*
X4500916D1*
X4525916Y2915947D1*
Y2865947D1*
X4500916Y2840947D1*
X4450916D1*
X4425916Y2865947D1*
X4400916Y2840947D1*
X4350916D1*
X4325916Y2865947D1*
Y2915947D1*
X5150916Y2940947D2*
X5175916Y2915947D1*
Y2865947D2*
X5150916Y2840947D1*
X5175916Y2815947D1*
Y2765947D2*
X5150916Y2740947D1*
X5175916Y2715947D1*
Y2665947D2*
X5150916Y2640947D1*
X5100916D1*
X5075916Y2665947D1*
Y2715947D1*
X5100916Y2740947D1*
X5075916Y2765947D1*
Y2815947D1*
X5100916Y2840947D1*
X5075916Y2865947D1*
Y2915947D1*
X5100916Y2940947D1*
X4000916Y2340947D2*
X3975916Y2365947D1*
X5175916Y3040947D2*
X5050916D1*
X4900916D1*
X4250916D1*
X3875916D1*
Y2340947D2*
X4050916D1*
X4100916D1*
X4150916D1*
X4200916D1*
X4250916D1*
X4300916D1*
X4350916D1*
X4400916D1*
X4450916D1*
X4500916D1*
X4550916D1*
X4600916D1*
X4650916D1*
X4700916D1*
X4750916D1*
X4800916D1*
X4850916D1*
X4900916D1*
X4950916D1*
X5000916D1*
X5050916D1*
X5100916D1*
X5175916D1*
X3875916Y3040947D2*
Y2340947D1*
X5175916D2*
Y3040947D1*
X4275916Y3015947D2*
X4250916Y3040947D1*
X5075916Y3015947D2*
X5050916Y3040947D1*
X4875916Y3015947D2*
X4900916Y3040947D1*
X4050916Y2340947D2*
X4075916Y2365947D1*
X4100916Y2340947D1*
X4150916D2*
X4175916Y2365947D1*
X4200916Y2340947D1*
X4250916D2*
X4275916Y2365947D1*
X4300916Y2340947D1*
X4350916D2*
X4375916Y2365947D1*
X4400916Y2340947D1*
X4450916D2*
X4475916Y2365947D1*
X4500916Y2340947D1*
X4550916D2*
X4575916Y2365947D1*
X4600916Y2340947D1*
X4650916D2*
X4675916Y2365947D1*
X4700916Y2340947D1*
X4750916D2*
X4775916Y2365947D1*
X4800916Y2340947D1*
X4850916D2*
X4875916Y2365947D1*
X4900916Y2340947D1*
X4950916D2*
X4975916Y2365947D1*
X5000916Y2340947D1*
X4000916Y2440947D2*
X4050916D1*
X4075916Y2415947D1*
X4100916Y2440947D1*
X4150916D1*
X4175916Y2415947D1*
X4200916Y2440947D1*
X4250916D1*
X4275916Y2415947D1*
X4300916Y2440947D1*
X4350916D1*
X4375916Y2415947D1*
X4400916Y2440947D1*
X4450916D1*
X4475916Y2415947D1*
X4500916Y2440947D1*
X4550916D1*
X4575916Y2415947D1*
X4600916Y2440947D1*
X4650916D1*
X4675916Y2415947D1*
X4700916Y2440947D1*
X4750916D1*
X4775916Y2415947D1*
X4800916Y2440947D1*
X4850916D1*
X4875916Y2415947D1*
X4900916Y2440947D1*
X4950916D1*
X4975916Y2415947D1*
X5000916Y2440947D1*
X5050916D1*
X5075916Y2415947D1*
X5100916Y2440947D1*
X5150916D1*
X5100916Y2340947D2*
X5075916Y2365947D1*
X5050916Y2340947D1*
X950000Y1301477D2*
D10*
X1281282Y970194D1*
X1537399Y1226312D1*
X1505397Y1258314D1*
X950000Y1301477D2*
X1206117Y1557594D1*
X1232553Y1531158D1*
X3919861Y604954D2*
X4325598Y839206D1*
X4144495Y1152884D1*
X4105301Y1130256D1*
X3919861Y604954D2*
X3738759Y918632D1*
X3771137Y937326D1*
X2335916Y1506127D2*
Y1705767D1*
X2435916D2*
X2335916D1*
X2435916Y1506127D2*
Y1705767D1*
Y1506127D2*
X2335916D1*
X2475978Y1180940D2*
X2625854D1*
X2475678Y1180715D2*
G03X2626154Y1180715I75238J-99796D01*
G01*
X3485916Y1715767D2*
Y1516127D1*
X3385916D2*
X3485916D1*
X3385916Y1715767D2*
Y1516127D1*
Y1715767D2*
X3485916D1*
X3510854Y1933457D2*
X3360978D1*
X3511154Y1933682D2*
G03X3360678Y1933682I-75238J99796D01*
G01*
X851096Y1980947D2*
X1050736D1*
Y1880947D2*
Y1980947D1*
X851096Y1880947D2*
X1050736D1*
X851096D2*
Y1980947D1*
X1043360Y1528447D2*
X893485D1*
X1043660Y1528672D2*
G03X893185Y1528672I-75238J99796D01*
G01*
X2155916Y1385867D2*
Y1826027D1*
X2035916Y1385867D2*
Y1826027D1*
X2155916D2*
G03X2035916Y1826027I-60000J-80D01*
G01*
Y1385867D2*
G03X2155916Y1385867I60000J80D01*
G01*
X3776751Y1715767D2*
Y1516127D1*
X3676751D2*
X3776751D1*
X3676751Y1715767D2*
Y1516127D1*
Y1715767D2*
X3776751D1*
X3801688Y1933457D2*
X3651813D1*
X3801988Y1933682D2*
G03X3651513Y1933682I-75238J99796D01*
G01*
X4067585Y1715767D2*
Y1516127D1*
X3967585D2*
X4067585D1*
X3967585Y1715767D2*
Y1516127D1*
Y1715767D2*
X4067585D1*
X4092523Y1933457D2*
X3942647D1*
X4092823Y1933682D2*
G03X3942347Y1933682I-75238J99796D01*
G01*
X4358419Y1715767D2*
Y1516127D1*
X4258419D2*
X4358419D1*
X4258419Y1715767D2*
Y1516127D1*
Y1715767D2*
X4358419D1*
X4383356Y1933457D2*
X4233481D1*
X4383656Y1933682D2*
G03X4233181Y1933682I-75238J99796D01*
G01*
X3550916Y4645947D2*
D14*
X1750916D1*
G03X1650916Y4545957I-219J-99781D01*
G01*
Y3845937D1*
G03X1750916Y3745947I99781J-209D01*
G01*
X3550916D1*
G03X3650916Y3845937I219J99781D01*
G01*
Y4105947D1*
X3630916Y4125927D1*
Y4265967D1*
X3650916Y4285947D1*
Y4545957D1*
G03X3550916Y4645947I-99781J209D01*
G01*
X4110736Y1195947D2*
D10*
X3911096D1*
Y1295947D2*
Y1195947D1*
X4110736Y1295947D2*
X3911096D1*
X4110736D2*
Y1195947D1*
X4505854Y1070953D2*
X4355978D1*
X4506154Y1071178D2*
G03X4355678Y1071178I-75238J99796D01*
G01*
X3615916Y2990947D2*
Y2390947D1*
X3715916Y2990947D2*
Y2390947D1*
X3615916Y2990947D2*
X3715916D1*
X3615916Y2390947D2*
X3715916D1*
X2540916Y1960947D2*
X2970916D1*
Y1290947D1*
X2540916D1*
Y1960947D1*
X1255916Y3615947D2*
D14*
X3255916D1*
Y2095947D1*
X1255916D1*
Y3615947D1*
X3055916Y3330947D2*
X3080916Y3355947D1*
X3130916D1*
X3155916Y3330947D1*
Y3280947D1*
X3130916Y3255947D1*
X3155916Y3230947D1*
Y3180947D1*
X3130916Y3155947D1*
X3155916Y3130947D1*
Y3080947D1*
X3130916Y3055947D1*
X3155916Y3030947D1*
Y2980947D1*
X3130916Y2955947D1*
X3080916D1*
X3055916Y2980947D1*
Y3030947D1*
X3080916Y3055947D1*
X3055916Y3080947D1*
Y3130947D1*
X3080916Y3155947D1*
X3055916Y3180947D1*
Y3230947D1*
X3080916Y3255947D1*
X3055916Y3280947D1*
Y3330947D1*
Y2630947D2*
X3080916Y2655947D1*
X3130916D1*
X3155916Y2630947D1*
Y2580947D1*
X3130916Y2555947D1*
X3155916Y2530947D1*
Y2480947D1*
X3130916Y2455947D1*
X3155916Y2430947D1*
Y2380947D1*
X3130916Y2355947D1*
X3080916D1*
X3055916Y2380947D1*
Y2430947D1*
X3080916Y2455947D1*
X3055916Y2480947D1*
Y2530947D1*
X3080916Y2555947D1*
X3055916Y2580947D1*
Y2630947D1*
X1405916Y3455947D2*
X1655916D1*
X1705916D1*
Y3255947D1*
Y3055947D1*
X1405916D1*
Y3255947D1*
Y3455947D1*
X1705916Y3255947D2*
X1405916D1*
Y3055947D2*
Y2855947D1*
Y2655947D1*
Y2455947D1*
X1705916D1*
Y2655947D1*
Y2855947D1*
Y3055947D1*
X1405916Y2855947D2*
X1705916D1*
X1405916Y2655947D2*
X1705916D1*
X1405916Y2455947D2*
Y2255947D1*
X1655916D1*
X1705916D1*
Y2455947D1*
X1655916Y3455947D2*
Y2255947D1*
X1665916Y3355947D2*
G02X1665916Y3355947I15000J0D01*
G01*
Y3155947D2*
G02X1665916Y3155947I15000J0D01*
G01*
Y2955947D2*
G02X1665916Y2955947I15000J0D01*
G01*
Y2755947D2*
G02X1665916Y2755947I15000J0D01*
G01*
Y2555947D2*
G02X1665916Y2555947I15000J0D01*
G01*
Y2355947D2*
G02X1665916Y2355947I15000J0D01*
G01*
X995916Y3305947D2*
D10*
X1095916D1*
Y3005947D1*
X995916D2*
X1095916D1*
X995916Y3305947D2*
Y3005947D1*
Y2710947D2*
X1095916D1*
Y2410947D1*
X995916D2*
X1095916D1*
X995916Y2710947D2*
Y2410947D1*
X2230241Y484416D2*
X2553723Y415658D1*
X2305547Y838706D2*
X2230241Y484416D1*
X2629029Y769947D2*
X2553723Y415658D1*
X2305547Y838706D2*
X2344042Y830523D1*
X2590535Y778130D2*
X2629029Y769947D1*
X2793751Y427797D2*
X3148100D1*
Y742748D1*
Y955377D2*
Y994731D1*
X3079190D1*
X2862661D2*
X2793751D1*
Y427797D1*
X5027758Y1582015D2*
X5240454Y1999455D1*
X4917728Y2163892D1*
X4897181Y2123567D1*
X5027758Y1582015D2*
X4705031Y1746452D1*
X4722004Y1779764D1*
X3930912Y4520965D2*
D14*
X3980936D1*
X4330896D2*
X4380920D1*
X4405932Y4395973D2*
Y4345939D1*
Y4295967D2*
Y4245933D1*
Y4195961D2*
Y4145927D1*
Y4095955D2*
Y4045921D1*
X4380920Y3920929D2*
X4330896D1*
X3980936D2*
X3930912D1*
X4405932Y4495917D2*
X4380920Y4520965D1*
X4330896D2*
X4305936Y4495917D1*
Y4445945D1*
X4330896Y4420959D1*
X4305936Y4395973D1*
Y4345939D1*
X4330896Y4320953D1*
X4305936Y4295967D1*
Y4245933D1*
X4330896Y4220947D1*
X4305936Y4195961D1*
Y4145927D1*
X4330896Y4120941D1*
X4305936Y4095955D1*
Y4045921D1*
X4330896Y4020935D1*
X4305936Y3995949D1*
Y3945977D1*
X4330896Y3920929D1*
X4380920D2*
X4405932Y3945977D1*
Y4445945D2*
X4380920Y4420959D1*
X4405932Y4395973D1*
Y4345939D2*
X4380920Y4320953D1*
X4405932Y4295967D1*
Y4245933D2*
X4380920Y4220947D1*
X4405932Y4195961D1*
Y4145927D2*
X4380920Y4120941D1*
X4405932Y4095955D1*
Y4045921D2*
X4380920Y4020935D1*
X4405932Y3995949D1*
X3980936Y4520965D2*
X4005896Y4495917D1*
Y4445945D1*
X3980936Y4420959D1*
X4005896Y4395973D1*
Y4345939D1*
X3980936Y4320953D1*
X4005896Y4295967D1*
Y4245933D1*
X3980936Y4220947D1*
X4005896Y4195961D1*
Y4145927D1*
X3980936Y4120941D1*
X4005896Y4095955D1*
Y4045921D1*
X3980936Y4020935D1*
X4005896Y3995949D1*
Y3945977D1*
X3980936Y3920929D1*
X3930912D2*
X3905900Y3945977D1*
Y4495917D2*
X3930912Y4520965D1*
X3905900Y4445945D2*
X3930912Y4420959D1*
X3905900Y4395973D1*
Y4345939D2*
X3930912Y4320953D1*
X3905900Y4295967D1*
Y4245933D2*
X3930912Y4220947D1*
X3905900Y4195961D1*
Y4145927D2*
X3930912Y4120941D1*
X3905900Y4095955D1*
Y4045921D2*
X3930912Y4020935D1*
X3905900Y3995949D1*
X4240936Y4170975D2*
X4280924D1*
X4070896D2*
X4030908D1*
X3895916Y4530947D2*
X4415916D1*
Y3910947D1*
X3895916D1*
Y4530947D1*
X3905900Y4495917D2*
Y4445945D1*
Y4395973D2*
Y4345939D1*
Y4295967D2*
Y4245933D1*
Y4195961D2*
Y4145927D1*
Y4095955D2*
Y4045921D1*
Y3995949D2*
Y3945977D1*
X4405932D2*
Y3995949D1*
Y4445945D2*
Y4495917D1*
X2059066Y5017246D2*
D10*
X2452766D1*
Y4840081D1*
X2059066D1*
Y5017246D1*
Y4981813D2*
X2452766D1*
X462490Y3500629D2*
X405063Y3174945D1*
X819192Y3437733D2*
X462490Y3500629D1*
X761765Y3112049D2*
X405063Y3174945D1*
X819192Y3437733D2*
X812358Y3398977D1*
X768599Y3150805D2*
X761765Y3112049D1*
X398991Y2636246D2*
X456418Y2310562D1*
X755693Y2699143D2*
X398991Y2636246D1*
X813120Y2373458D2*
X456418Y2310562D1*
X755693Y2699143D2*
X762526Y2660386D1*
X806286Y2412215D2*
X813120Y2373458D1*
X3845996Y4980947D2*
X3405836D1*
X3845996Y4860947D2*
X3405836D1*
Y4980947D2*
G03X3405836Y4860947I80J-60000D01*
G01*
X3845996D2*
G03X3845996Y4980947I-80J60000D01*
G01*
X5049511Y3224148D2*
X5389872Y3348029D1*
X5088248Y4176735D1*
X4747887Y4052853D1*
X4761339Y4015893D1*
X5049511Y3224148D2*
X5036058Y3261108D1*
X1835916Y1385867D2*
Y1826027D1*
X1715916Y1385867D2*
Y1826027D1*
X1835916D2*
G03X1715916Y1826027I-60000J-80D01*
G01*
Y1385867D2*
G03X1835916Y1385867I60000J80D01*
G01*
X4640916Y1690867D2*
Y2131027D1*
X4520916Y1690867D2*
Y2131027D1*
X4640916D2*
G03X4520916Y2131027I-60000J-80D01*
G01*
Y1690867D2*
G03X4640916Y1690867I60000J80D01*
G01*
X3205836Y1145947D2*
X3645996D1*
X3205836Y1265947D2*
X3645996D1*
Y1145947D2*
G03X3645996Y1265947I-80J60000D01*
G01*
X3205836D2*
G03X3205836Y1145947I80J-60000D01*
G01*
X3375916Y2960947D2*
X3475916D1*
X3375916Y3360947D2*
Y2960947D1*
X3475916Y3360947D2*
Y2960947D1*
X3375916Y3360947D2*
X3475916D1*
X4531323Y3063930D2*
D97*
Y3114170D1*
X4512200Y3063930D1*
X4493076Y3114170D1*
Y3063930D1*
X4546762Y3104553D2*
X4551571Y3106985D1*
X4558756Y3114115D1*
Y3063930D1*
X1231199Y1630817D2*
Y1592571D1*
X1228822Y1585386D1*
X1226391Y1583009D1*
X1221637Y1580577D1*
X1216829D1*
X1212076Y1583009D1*
X1209699Y1585386D1*
X1207267Y1592571D1*
Y1597324D1*
X1256200Y1580577D2*
X1280132Y1630762D1*
X1246638D1*
X4020866Y1226107D2*
Y1187861D1*
X4018490Y1180676D1*
X4016058Y1178299D1*
X4011305Y1175867D1*
X4006496D1*
X4001743Y1178299D1*
X3999366Y1180676D1*
X3996935Y1187861D1*
Y1192614D1*
X4067422Y1209361D2*
X4064990Y1202176D1*
X4060237Y1197367D1*
X4053052Y1194991D1*
X4050676D1*
X4043491Y1197367D1*
X4038737Y1202176D1*
X4036306Y1209361D1*
Y1211737D1*
X4038737Y1218922D1*
X4043491Y1223676D1*
X4050676Y1226052D1*
X4053052D1*
X4060237Y1223676D1*
X4064990Y1218922D1*
X4067422Y1209361D1*
Y1197367D1*
X4064990Y1185429D1*
X4060237Y1178244D1*
X4053052Y1175867D1*
X4048299D1*
X4041114Y1178244D1*
X4038737Y1183053D1*
X2286625Y1575484D2*
Y1596984D1*
X2284193Y1604169D1*
X2281816Y1606601D1*
X2277063Y1608977D1*
X2272255D1*
X2267501Y1606601D1*
X2265070Y1604169D1*
X2262693Y1596984D1*
Y1575484D1*
X2312933D1*
X2286625Y1592230D2*
X2312933Y1608977D1*
X2272310Y1624416D2*
X2269878Y1629225D1*
X2262748Y1636410D1*
X2312933D1*
X2520453Y1254163D2*
Y1203923D1*
X2537200D1*
X2544385Y1206355D1*
X2549193Y1211108D1*
X2551570Y1215917D1*
X2553946Y1223046D1*
Y1235040D1*
X2551570Y1242225D1*
X2549193Y1246978D1*
X2544385Y1251787D1*
X2537200Y1254163D1*
X2520453D1*
X2569385Y1244546D2*
X2574194Y1246978D1*
X2581379Y1254108D1*
Y1203923D1*
X3336625Y1574734D2*
Y1596234D1*
X3334193Y1603419D1*
X3331816Y1605851D1*
X3327063Y1608227D1*
X3322255D1*
X3317501Y1605851D1*
X3315070Y1603419D1*
X3312693Y1596234D1*
Y1574734D1*
X3362933D1*
X3336625Y1591481D2*
X3362933Y1608227D1*
X3312748Y1628475D2*
Y1654728D1*
X3331871Y1640413D1*
Y1647598D1*
X3334248Y1652351D1*
X3336625Y1654728D1*
X3343810Y1657160D1*
X3348563D1*
X3355748Y1654728D1*
X3360556Y1649975D1*
X3362933Y1642790D1*
Y1635605D1*
X3360556Y1628475D1*
X3358124Y1626098D1*
X3353371Y1623666D1*
X3394703Y2231680D2*
Y2181440D1*
X3411450D1*
X3418635Y2183872D1*
X3423443Y2188625D1*
X3425820Y2193434D1*
X3428196Y2200564D1*
Y2212557D1*
X3425820Y2219742D1*
X3423443Y2224495D1*
X3418635Y2229304D1*
X3411450Y2231680D1*
X3394703D1*
X3448444Y2231625D2*
X3474697D1*
X3460382Y2212502D1*
X3467567D1*
X3472320Y2210125D1*
X3474697Y2207749D1*
X3477129Y2200564D1*
Y2195810D1*
X3474697Y2188625D1*
X3469944Y2183817D1*
X3462759Y2181440D1*
X3455574D1*
X3448444Y2183817D1*
X3446067Y2186249D1*
X3443636Y2191002D1*
X895987Y2030238D2*
X917486D1*
X924672Y2032670D1*
X927103Y2035047D1*
X929480Y2039800D1*
Y2044608D1*
X927103Y2049361D1*
X924672Y2051793D1*
X917486Y2054170D1*
X895987D1*
Y2003930D1*
X912733Y2030238D2*
X929480Y2003930D1*
X944919Y2044553D2*
X949728Y2046985D1*
X956913Y2054115D1*
Y2003930D1*
X986722Y2054115D2*
X979537Y2051738D1*
X974729Y2044553D1*
X972352Y2032615D1*
Y2025430D1*
X974729Y2013491D1*
X979537Y2006306D1*
X986722Y2003930D1*
X991475D1*
X998660Y2006306D1*
X1003413Y2013491D1*
X1005845Y2025430D1*
Y2032615D1*
X1003413Y2044553D1*
X998660Y2051738D1*
X991475Y2054115D1*
X986722D1*
X1003413Y2044553D2*
X974729Y2013491D1*
X927210Y1826670D2*
Y1776430D1*
X943956D1*
X951141Y1778862D1*
X955950Y1783615D1*
X958326Y1788423D1*
X960703Y1795553D1*
Y1807547D1*
X958326Y1814732D1*
X955950Y1819485D1*
X951141Y1824293D1*
X943956Y1826670D1*
X927210D1*
X985704Y1776430D2*
X1009635Y1826615D1*
X976142D1*
X1974631Y1599415D2*
X1969878Y1597039D1*
X1965069Y1592230D1*
X1962693Y1587477D1*
Y1577916D1*
X1965069Y1573107D1*
X1969878Y1568354D1*
X1974631Y1565922D1*
X1981816Y1563546D1*
X1993810D1*
X2000939Y1565922D1*
X2005748Y1568354D1*
X2010501Y1573107D1*
X2012933Y1577916D1*
Y1587477D1*
X2010501Y1592230D1*
X2005748Y1597039D1*
X2000939Y1599415D1*
X1962748Y1619663D2*
Y1645916D1*
X1981871Y1631601D1*
Y1638786D1*
X1984248Y1643540D1*
X1986625Y1645916D1*
X1993810Y1648348D1*
X1998563D1*
X2005748Y1645916D1*
X2010556Y1641163D1*
X2012933Y1633978D1*
Y1626793D1*
X2010556Y1619663D1*
X2008124Y1617287D1*
X2003371Y1614855D1*
X3627459Y1573546D2*
Y1595045D1*
X3625027Y1602230D1*
X3622651Y1604662D1*
X3617898Y1607039D1*
X3613089D1*
X3608336Y1604662D1*
X3605904Y1602230D1*
X3603528Y1595045D1*
Y1573546D1*
X3653768D1*
X3627459Y1590292D2*
X3653768Y1607039D1*
Y1646410D2*
X3603583D1*
X3637021Y1622478D1*
Y1658348D1*
X3684349Y2231680D2*
Y2181440D1*
X3701096D1*
X3708281Y2183872D1*
X3713089Y2188625D1*
X3715466Y2193434D1*
X3717843Y2200564D1*
Y2212557D1*
X3715466Y2219742D1*
X3713089Y2224495D1*
X3708281Y2229304D1*
X3701096Y2231680D1*
X3684349D1*
X3757214Y2181440D2*
Y2231625D1*
X3733282Y2198187D1*
X3769152D1*
X3918294Y1574734D2*
Y1596234D1*
X3915862Y1603419D1*
X3913485Y1605851D1*
X3908732Y1608227D1*
X3903924D1*
X3899171Y1605851D1*
X3896739Y1603419D1*
X3894362Y1596234D1*
Y1574734D1*
X3944602D1*
X3918294Y1591481D2*
X3944602Y1608227D1*
X3894418Y1652351D2*
Y1628475D1*
X3915917Y1626098D1*
X3913541Y1628475D1*
X3911109Y1635660D1*
Y1642790D1*
X3913541Y1649975D1*
X3918294Y1654783D1*
X3925479Y1657160D1*
X3930232D1*
X3937417Y1654783D1*
X3942226Y1649975D1*
X3944602Y1642790D1*
Y1635660D1*
X3942226Y1628475D1*
X3939794Y1626098D1*
X3935041Y1623666D1*
X3976372Y2231680D2*
Y2181440D1*
X3993119D1*
X4000304Y2183872D1*
X4005112Y2188625D1*
X4007489Y2193434D1*
X4009866Y2200564D1*
Y2212557D1*
X4007489Y2219742D1*
X4005112Y2224495D1*
X4000304Y2229304D1*
X3993119Y2231680D1*
X3976372D1*
X4053990Y2231625D2*
X4030113D1*
X4027737Y2210125D1*
X4030113Y2212502D1*
X4037298Y2214934D1*
X4044428D1*
X4051613Y2212502D1*
X4056422Y2207749D1*
X4058798Y2200564D1*
Y2195810D1*
X4056422Y2188625D1*
X4051613Y2183817D1*
X4044428Y2181440D1*
X4037298D1*
X4030113Y2183817D1*
X4027737Y2186249D1*
X4025305Y2191002D1*
X4209127Y1575950D2*
Y1597450D1*
X4206695Y1604635D1*
X4204319Y1607067D1*
X4199566Y1609443D1*
X4194757D1*
X4190004Y1607067D1*
X4187572Y1604635D1*
X4185196Y1597450D1*
Y1575950D1*
X4235436D1*
X4209127Y1592696D2*
X4235436Y1609443D1*
X4192381Y1653567D2*
X4187627Y1651191D1*
X4185251Y1644006D1*
Y1639252D1*
X4187627Y1632067D1*
X4194812Y1627259D1*
X4206751Y1624882D1*
X4218689D1*
X4228251Y1627259D1*
X4233059Y1632067D1*
X4235436Y1639252D1*
Y1641629D1*
X4233059Y1648759D1*
X4228251Y1653567D1*
X4221065Y1655944D1*
X4218689D1*
X4211504Y1653567D1*
X4206751Y1648759D1*
X4204374Y1641629D1*
Y1639252D1*
X4206751Y1632067D1*
X4211504Y1627259D1*
X4218689Y1624882D1*
X4268422Y2231680D2*
Y2181440D1*
X4285168D1*
X4292353Y2183872D1*
X4297162Y2188625D1*
X4299538Y2193434D1*
X4301915Y2200564D1*
Y2212557D1*
X4299538Y2219742D1*
X4297162Y2224495D1*
X4292353Y2229304D1*
X4285168Y2231680D1*
X4268422D1*
X4346039Y2224495D2*
X4343662Y2229248D1*
X4336477Y2231625D1*
X4331724D1*
X4324539Y2229248D1*
X4319731Y2222063D1*
X4317354Y2210125D1*
Y2198187D1*
X4319731Y2188625D1*
X4324539Y2183817D1*
X4331724Y2181440D1*
X4334101D1*
X4341231Y2183817D1*
X4346039Y2188625D1*
X4348416Y2195810D1*
Y2198187D1*
X4346039Y2205372D1*
X4341231Y2210125D1*
X4334101Y2212502D1*
X4331724D1*
X4324539Y2210125D1*
X4319731Y2205372D1*
X4317354Y2198187D1*
X2631857Y4668930D2*
Y4719170D1*
X2612733Y4668930D1*
X2593610Y4719170D1*
Y4668930D1*
X2680789Y4711985D2*
X2676036Y4716793D1*
X2668851Y4719170D1*
X2659289D1*
X2652104Y4716793D1*
X2647296Y4711985D1*
Y4707232D1*
X2649728Y4702423D1*
X2652104Y4700047D1*
X2656857Y4697670D1*
X2671228Y4692862D1*
X2676036Y4690485D1*
X2678413Y4688053D1*
X2680789Y4683300D1*
Y4676115D1*
X2676036Y4671362D1*
X2668851Y4668930D1*
X2659289D1*
X2652104Y4671362D1*
X2647296Y4676115D1*
X2696228Y4709553D2*
X2701037Y4711985D1*
X2708222Y4719115D1*
Y4668930D1*
X3969703Y1345238D2*
X3991203D1*
X3998388Y1347670D1*
X4000820Y1350047D1*
X4003196Y1354800D1*
Y1359608D1*
X4000820Y1364361D1*
X3998388Y1366793D1*
X3991203Y1369170D1*
X3969703D1*
Y1318930D1*
X3986450Y1345238D2*
X4003196Y1318930D1*
X4021067Y1357176D2*
Y1359553D1*
X4023444Y1364361D1*
X4025821Y1366738D1*
X4030629Y1369115D1*
X4040191D1*
X4044944Y1366738D1*
X4047320Y1364361D1*
X4049752Y1359553D1*
Y1354800D1*
X4047320Y1349991D1*
X4042567Y1342862D1*
X4018636Y1318930D1*
X4052129D1*
X4389703Y1369176D2*
Y1318936D1*
X4406450D1*
X4413635Y1321368D1*
X4418443Y1326121D1*
X4420820Y1330930D1*
X4423196Y1338060D1*
Y1350053D1*
X4420820Y1357238D1*
X4418443Y1361991D1*
X4413635Y1366800D1*
X4406450Y1369176D1*
X4389703D1*
X4441067Y1357183D2*
Y1359559D1*
X4443444Y1364368D1*
X4445821Y1366745D1*
X4450629Y1369121D1*
X4460191D1*
X4464944Y1366745D1*
X4467320Y1364368D1*
X4469752Y1359559D1*
Y1354806D1*
X4467320Y1349998D1*
X4462567Y1342868D1*
X4438636Y1318936D1*
X4472129D1*
X3542693Y2689196D2*
X3580939D1*
X3588124Y2686820D1*
X3590501Y2684388D1*
X3592933Y2679635D1*
Y2674826D1*
X3590501Y2670073D1*
X3588124Y2667696D1*
X3580939Y2665265D1*
X3576186D1*
X3552310Y2704636D2*
X3549878Y2709444D1*
X3542748Y2716629D1*
X3592933D1*
X2713515Y2034170D2*
Y1998300D1*
X2715891Y1991115D1*
X2720700Y1986362D1*
X2727885Y1983930D1*
X2732638D1*
X2739823Y1986362D1*
X2744631Y1991115D1*
X2747008Y1998300D1*
Y2034170D1*
X2786379Y1983930D2*
Y2034115D1*
X2762447Y2000676D1*
X2798317D1*
X2225453Y3689170D2*
Y3653300D1*
X2227830Y3646115D1*
X2232638Y3641362D1*
X2239823Y3638930D1*
X2244576D1*
X2251761Y3641362D1*
X2256570Y3646115D1*
X2258946Y3653300D1*
Y3689170D1*
X2274385Y3679553D2*
X2279194Y3681985D1*
X2286379Y3689115D1*
Y3638930D1*
X922693Y3142258D2*
X960939D1*
X968124Y3139881D1*
X970501Y3137450D1*
X972933Y3132696D1*
Y3127888D1*
X970501Y3123135D1*
X968124Y3120758D1*
X960939Y3118326D1*
X956186D1*
X972933Y3181629D2*
X922748D1*
X956186Y3157697D1*
Y3193567D1*
X922693Y2548446D2*
X960939D1*
X968124Y2546070D1*
X970501Y2543638D1*
X972933Y2538885D1*
Y2534076D1*
X970501Y2529323D1*
X968124Y2526947D1*
X960939Y2524515D1*
X956186D1*
X922748Y2592570D2*
Y2568694D1*
X944248Y2566317D1*
X941871Y2568694D1*
X939440Y2575879D1*
Y2583009D1*
X941871Y2590194D1*
X946625Y2595002D1*
X953810Y2597379D1*
X958563D1*
X965748Y2595002D1*
X970556Y2590194D1*
X972933Y2583009D1*
Y2575879D1*
X970556Y2568694D1*
X968124Y2566317D1*
X963371Y2563886D1*
X4957276Y2237115D2*
Y2198869D1*
X4954899Y2191684D1*
X4952467Y2189307D1*
X4947714Y2186875D1*
X4942906D1*
X4938153Y2189307D1*
X4935776Y2191684D1*
X4933344Y2198869D1*
Y2203622D1*
X4972715Y2227498D2*
X4977524Y2229930D1*
X4984709Y2237060D1*
Y2186875D1*
X5000148Y2227498D2*
X5004956Y2229930D1*
X5012141Y2237060D1*
Y2186875D1*
X4114703Y4604170D2*
Y4568300D1*
X4117080Y4561115D1*
X4121888Y4556362D1*
X4129073Y4553930D1*
X4133826D1*
X4141011Y4556362D1*
X4145820Y4561115D1*
X4148196Y4568300D1*
Y4604170D1*
X4168444Y4604115D2*
X4194697D1*
X4180382Y4584991D1*
X4187567D1*
X4192320Y4582615D1*
X4194697Y4580238D1*
X4197129Y4573053D1*
Y4568300D1*
X4194697Y4561115D1*
X4189944Y4556306D1*
X4182759Y4553930D1*
X4175574D1*
X4168444Y4556306D1*
X4166067Y4558738D1*
X4163636Y4563491D1*
X2214703Y5090469D2*
Y5054599D1*
X2217080Y5047414D1*
X2221888Y5042661D1*
X2229073Y5040229D1*
X2233826D1*
X2241011Y5042661D1*
X2245820Y5047414D1*
X2248196Y5054599D1*
Y5090469D1*
X2266067Y5078476D2*
Y5080852D1*
X2268444Y5085661D1*
X2270821Y5088037D1*
X2275629Y5090414D1*
X2285191D1*
X2289944Y5088037D1*
X2292320Y5085661D1*
X2294752Y5080852D1*
Y5076099D1*
X2292320Y5071290D1*
X2287567Y5064161D1*
X2263636Y5040229D1*
X2297129D1*
X599627Y3573853D2*
Y3535606D1*
X597250Y3528421D1*
X594818Y3526044D1*
X590065Y3523613D1*
X585257D1*
X580504Y3526044D1*
X578127Y3528421D1*
X575695Y3535606D1*
Y3540359D1*
X619874Y3573797D2*
X646128D1*
X631813Y3554674D1*
X638998D1*
X643751Y3552297D1*
X646128Y3549921D1*
X648559Y3542736D1*
Y3537983D1*
X646128Y3530798D1*
X641374Y3525989D1*
X634189Y3523613D1*
X627004D1*
X619874Y3525989D1*
X617498Y3528421D1*
X615066Y3533174D1*
X594771Y2772366D2*
Y2734119D1*
X592394Y2726934D1*
X589962Y2724557D1*
X585209Y2722126D1*
X580400D1*
X575647Y2724557D1*
X573271Y2726934D1*
X570839Y2734119D1*
Y2738872D1*
X638895Y2765181D2*
X636518Y2769934D1*
X629333Y2772310D1*
X624580D1*
X617395Y2769934D1*
X612586Y2762749D1*
X610210Y2750811D1*
Y2738872D1*
X612586Y2729311D1*
X617395Y2724502D1*
X624580Y2722126D1*
X626956D1*
X634086Y2724502D1*
X638895Y2729311D1*
X641271Y2736496D1*
Y2738872D1*
X638895Y2746057D1*
X634086Y2750811D1*
X626956Y2753187D1*
X624580D1*
X617395Y2750811D1*
X612586Y2746057D1*
X610210Y2738872D1*
X3593490Y3609766D2*
X3614990D1*
X3622175Y3612198D1*
X3624606Y3614574D1*
X3626983Y3619327D1*
Y3624136D1*
X3624606Y3628889D1*
X3622175Y3631321D1*
X3614990Y3633697D1*
X3593490D1*
Y3583457D1*
X3610236Y3609766D2*
X3626983Y3583457D1*
X3673539Y3616951D2*
X3671107Y3609766D1*
X3666354Y3604957D1*
X3659169Y3602581D1*
X3656792D1*
X3649607Y3604957D1*
X3644854Y3609766D1*
X3642422Y3616951D1*
Y3619327D1*
X3644854Y3626512D1*
X3649607Y3631266D1*
X3656792Y3633642D1*
X3659169D1*
X3666354Y3631266D1*
X3671107Y3626512D1*
X3673539Y3616951D1*
Y3604957D1*
X3671107Y3593019D1*
X3666354Y3585834D1*
X3659169Y3583457D1*
X3654416D1*
X3647231Y3585834D1*
X3644854Y3590642D1*
X4102301Y3609766D2*
X4123801D1*
X4130986Y3612198D1*
X4133418Y3614574D1*
X4135795Y3619327D1*
Y3624136D1*
X4133418Y3628889D1*
X4130986Y3631321D1*
X4123801Y3633697D1*
X4102301D1*
Y3583457D1*
X4119048Y3609766D2*
X4135795Y3583457D1*
X4160796D2*
X4184727Y3633642D1*
X4151234D1*
X3847329Y3494766D2*
X3868829D1*
X3876014Y3497198D1*
X3878446Y3499574D1*
X3880822Y3504327D1*
Y3509136D1*
X3878446Y3513889D1*
X3876014Y3516321D1*
X3868829Y3518697D1*
X3847329D1*
Y3468457D1*
X3864076Y3494766D2*
X3880822Y3468457D1*
X3908200Y3518642D2*
X3901070Y3516266D1*
X3898638Y3511512D1*
Y3506704D1*
X3901070Y3501951D1*
X3905823Y3499519D1*
X3915385Y3497142D1*
X3922570Y3494766D1*
X3927323Y3489957D1*
X3929700Y3485204D1*
Y3478019D1*
X3927323Y3473266D1*
X3924947Y3470834D1*
X3917761Y3468457D1*
X3908200D1*
X3901070Y3470834D1*
X3898638Y3473266D1*
X3896262Y3478019D1*
Y3485204D1*
X3898638Y3489957D1*
X3903447Y3494766D1*
X3910576Y3497142D1*
X3920138Y3499519D1*
X3924947Y3501951D1*
X3927323Y3506704D1*
Y3511512D1*
X3924947Y3516266D1*
X3917761Y3518642D1*
X3908200D1*
X3618196Y5042232D2*
X3615820Y5046985D1*
X3611011Y5051793D1*
X3606258Y5054170D1*
X3596696D1*
X3591888Y5051793D1*
X3587135Y5046985D1*
X3584703Y5042232D1*
X3582326Y5035047D1*
Y5023053D1*
X3584703Y5015923D1*
X3587135Y5011115D1*
X3591888Y5006362D1*
X3596696Y5003930D1*
X3606258D1*
X3611011Y5006362D1*
X3615820Y5011115D1*
X3618196Y5015923D1*
X3657567Y5003930D2*
Y5054115D1*
X3633636Y5020677D1*
X3669506D1*
X5056379Y4249958D2*
Y4211711D1*
X5054002Y4204526D1*
X5051570Y4202150D1*
X5046817Y4199718D1*
X5042009D1*
X5037256Y4202150D1*
X5034879Y4204526D1*
X5032447Y4211711D1*
Y4216465D1*
X5074250Y4237964D2*
Y4240341D1*
X5076626Y4245149D1*
X5079003Y4247526D1*
X5083812Y4249903D1*
X5093373D1*
X5098126Y4247526D1*
X5100503Y4245149D1*
X5102935Y4240341D1*
Y4235588D1*
X5100503Y4230779D1*
X5095750Y4223650D1*
X5071818Y4199718D1*
X5105311D1*
X1654631Y1600631D2*
X1649878Y1598255D1*
X1645069Y1593446D1*
X1642693Y1588693D1*
Y1579132D1*
X1645069Y1574323D1*
X1649878Y1569570D1*
X1654631Y1567138D1*
X1661816Y1564762D1*
X1673810D1*
X1680939Y1567138D1*
X1685748Y1569570D1*
X1690501Y1574323D1*
X1692933Y1579132D1*
Y1588693D1*
X1690501Y1593446D1*
X1685748Y1598255D1*
X1680939Y1600631D1*
X1649878Y1644756D2*
X1645125Y1642379D1*
X1642748Y1635194D1*
Y1630441D1*
X1645125Y1623256D1*
X1652310Y1618447D1*
X1664248Y1616071D1*
X1676186D1*
X1685748Y1618447D1*
X1690556Y1623256D1*
X1692933Y1630441D1*
Y1632817D1*
X1690556Y1639947D1*
X1685748Y1644755D1*
X1678563Y1647132D1*
X1676186D1*
X1669001Y1644755D1*
X1664248Y1639947D1*
X1661871Y1632817D1*
Y1630441D1*
X1664248Y1623256D1*
X1669001Y1618447D1*
X1676186Y1616071D1*
X4459631Y1904415D2*
X4454878Y1902039D1*
X4450069Y1897230D1*
X4447693Y1892477D1*
Y1882916D1*
X4450069Y1878107D1*
X4454878Y1873354D1*
X4459631Y1870922D1*
X4466816Y1868546D1*
X4478810D1*
X4485939Y1870922D1*
X4490748Y1873354D1*
X4495501Y1878107D1*
X4497933Y1882916D1*
Y1892477D1*
X4495501Y1897230D1*
X4490748Y1902039D1*
X4485939Y1904415D1*
X4497933Y1929416D2*
X4447748Y1953348D1*
Y1919855D1*
X3419412Y1117050D2*
X3417036Y1121803D1*
X3412227Y1126611D1*
X3407474Y1128988D1*
X3397912D1*
X3393104Y1126611D1*
X3388351Y1121803D1*
X3385919Y1117050D1*
X3383542Y1109865D1*
Y1097871D1*
X3385919Y1090741D1*
X3388351Y1085933D1*
X3393104Y1081180D1*
X3397912Y1078748D1*
X3407474D1*
X3412227Y1081180D1*
X3417036Y1085933D1*
X3419412Y1090741D1*
X3446790Y1128933D2*
X3439660Y1126556D1*
X3437228Y1121803D1*
Y1116994D1*
X3439660Y1112241D1*
X3444413Y1109809D1*
X3453975Y1107433D1*
X3461160Y1105056D1*
X3465913Y1100248D1*
X3468290Y1095495D1*
Y1088310D1*
X3465913Y1083556D1*
X3463536Y1081125D1*
X3456351Y1078748D1*
X3446790D1*
X3439660Y1081125D1*
X3437228Y1083556D1*
X3434852Y1088310D1*
Y1095495D1*
X3437228Y1100248D1*
X3442037Y1105056D1*
X3449166Y1107433D1*
X3458728Y1109809D1*
X3463536Y1112241D1*
X3465913Y1116994D1*
Y1121803D1*
X3463536Y1126556D1*
X3456351Y1128933D1*
X3446790D1*
X3302693Y3134730D2*
X3340939D1*
X3348124Y3132353D1*
X3350501Y3129922D1*
X3352933Y3125168D1*
Y3120360D1*
X3350501Y3115607D1*
X3348124Y3113230D1*
X3340939Y3110798D1*
X3336186D1*
X3312310Y3150169D2*
X3309878Y3154978D1*
X3302748Y3162163D1*
X3352933D1*
X3314686Y3180034D2*
X3312310D1*
X3307501Y3182410D1*
X3305125Y3184787D1*
X3302748Y3189595D1*
Y3199157D1*
X3305125Y3203910D1*
X3307501Y3206287D1*
X3312310Y3208719D1*
X3317063D1*
X3321871Y3206287D1*
X3329001Y3201534D1*
X3352933Y3177602D1*
Y3211095D1*
X4625491Y3669865D2*
D98*
X4618837Y3676596D1*
X4608778Y3679924D1*
X4595391D1*
X4585332Y3676596D1*
X4578601Y3669865D1*
Y3663210D1*
X4582005Y3656478D1*
X4585332Y3653151D1*
X4591987Y3649824D1*
X4612105Y3643092D1*
X4618837Y3639765D1*
X4622164Y3636360D1*
X4625491Y3629706D1*
Y3619647D1*
X4618837Y3612992D1*
X4608778Y3609588D1*
X4595391D1*
X4585332Y3612992D1*
X4578601Y3619647D1*
X4647106Y3643092D2*
X4677283D1*
X4687265Y3646419D1*
X4690670Y3649824D1*
X4693997Y3656478D1*
Y3666537D1*
X4690670Y3673192D1*
X4687265Y3676596D1*
X4677283Y3679924D1*
X4647106D1*
Y3609588D1*
X4715612Y3679924D2*
Y3609588D1*
X3494765Y792205D2*
Y721869D1*
X3471320Y792205D2*
X3518210D1*
X3539825Y768759D2*
Y721869D1*
Y748641D2*
X3543230Y758700D1*
X3549884Y765432D1*
X3556616Y768759D1*
X3566675D1*
X3588290Y748641D2*
X3628449D1*
Y755373D1*
X3625122Y762105D1*
X3621795Y765432D1*
X3615063Y768759D1*
X3605004D1*
X3598349Y765432D1*
X3591617Y758700D1*
X3588290Y748641D1*
Y741987D1*
X3591617Y731928D1*
X3598349Y725273D1*
X3605004Y721869D1*
X3615063D1*
X3621795Y725273D1*
X3628449Y731928D1*
X3650064Y748641D2*
X3690223D1*
Y755373D1*
X3686896Y762105D1*
X3683568Y765432D1*
X3676837Y768759D1*
X3666777D1*
X3660123Y765432D1*
X3653391Y758700D1*
X3650064Y748641D1*
Y741987D1*
X3653391Y731928D1*
X3660123Y725273D1*
X3666777Y721869D1*
X3676837D1*
X3683568Y725273D1*
X3690223Y731928D1*
X1540491Y1102146D2*
X1533837Y1108877D1*
X1523778Y1112205D1*
X1510391D1*
X1500332Y1108877D1*
X1493601Y1102146D1*
Y1095491D1*
X1497005Y1088759D1*
X1500332Y1085432D1*
X1506987Y1082105D1*
X1527105Y1075373D1*
X1533837Y1072046D1*
X1537164Y1068641D1*
X1540491Y1061987D1*
Y1051928D1*
X1533837Y1045273D1*
X1523778Y1041869D1*
X1510391D1*
X1500332Y1045273D1*
X1493601Y1051928D1*
X1562106Y1088759D2*
Y1055255D1*
X1565433Y1045273D1*
X1572165Y1041869D1*
X1582224D1*
X1588879Y1045273D1*
X1598938Y1055255D1*
Y1088759D2*
Y1041869D1*
X1620553Y1088759D2*
Y1018423D1*
Y1078700D2*
X1627285Y1085355D1*
X1633939Y1088759D1*
X1643998D1*
X1650730Y1085355D1*
X1657384Y1078700D1*
X1660789Y1068641D1*
Y1061909D1*
X1657384Y1051928D1*
X1650730Y1045196D1*
X1643998Y1041869D1*
X1633939D1*
X1627285Y1045196D1*
X1620553Y1051928D1*
X1682404Y1088759D2*
Y1018423D1*
Y1078700D2*
X1689136Y1085355D1*
X1695790Y1088759D1*
X1705849D1*
X1712581Y1085355D1*
X1719235Y1078700D1*
X1722640Y1068641D1*
Y1061909D1*
X1719235Y1051928D1*
X1712581Y1045196D1*
X1705849Y1041869D1*
X1695790D1*
X1689136Y1045196D1*
X1682404Y1051928D1*
X1744255Y1112205D2*
Y1041869D1*
X1769275Y1088759D2*
X1789315Y1041869D1*
X1782661Y1028482D1*
X1775929Y1021750D1*
X1769275Y1018423D1*
X1765870D1*
X1809433Y1088759D2*
X1789315Y1041869D1*
X3473210Y682146D2*
X3466556Y688877D1*
X3456497Y692205D1*
X3443111D1*
X3433052Y688877D1*
X3426320Y682146D1*
Y675491D1*
X3429724Y668759D1*
X3433052Y665432D1*
X3439706Y662105D1*
X3459824Y655373D1*
X3466556Y652046D1*
X3469883Y648641D1*
X3473210Y641987D1*
Y631928D1*
X3466556Y625273D1*
X3456497Y621869D1*
X3443111D1*
X3433052Y625273D1*
X3426320Y631928D1*
X3494825Y648641D2*
X3534984D1*
Y655373D1*
X3531657Y662105D1*
X3528330Y665432D1*
X3521598Y668759D1*
X3511539D1*
X3504884Y665432D1*
X3498153Y658700D1*
X3494825Y648641D1*
Y641987D1*
X3498153Y631928D1*
X3504884Y625273D1*
X3511539Y621869D1*
X3521598D1*
X3528330Y625273D1*
X3534984Y631928D1*
X3556599Y668759D2*
Y621869D1*
Y655373D2*
X3566658Y665432D1*
X3573390Y668759D1*
X3583372D1*
X3590103Y665432D1*
X3593431Y655373D1*
Y621869D1*
X3651877Y658700D2*
X3648550Y665432D1*
X3638491Y668759D1*
X3628432D1*
X3618373Y665432D1*
X3615046Y658700D1*
X3618373Y652046D1*
X3625105Y648641D1*
X3641818Y645314D1*
X3648550Y641987D1*
X3651877Y635255D1*
Y631928D1*
X3648550Y625273D1*
X3638491Y621869D1*
X3628432D1*
X3618373Y625273D1*
X3615046Y631928D1*
X3690206Y668759D2*
X3683551Y665432D1*
X3676819Y658700D1*
X3673492Y648641D1*
Y641987D1*
X3676819Y631928D1*
X3683551Y625273D1*
X3690206Y621869D1*
X3700265D1*
X3706997Y625273D1*
X3713651Y631928D1*
X3717056Y641987D1*
Y648641D1*
X3713651Y658700D1*
X3706997Y665432D1*
X3700265Y668759D1*
X3690206D1*
X3738671D2*
Y621869D1*
Y648641D2*
X3742075Y658700D1*
X3748730Y665432D1*
X3755461Y668759D1*
X3765521D1*
X1530491Y987146D2*
X1523837Y993877D1*
X1513778Y997205D1*
X1500391D1*
X1490332Y993877D1*
X1483601Y987146D1*
Y980491D1*
X1487005Y973759D1*
X1490332Y970432D1*
X1496987Y967105D1*
X1517105Y960373D1*
X1523837Y957046D1*
X1527164Y953641D1*
X1530491Y946987D1*
Y936928D1*
X1523837Y930273D1*
X1513778Y926869D1*
X1500391D1*
X1490332Y930273D1*
X1483601Y936928D1*
X1552106Y973759D2*
X1565492Y926869D1*
X1578879Y973759D1*
X1592265Y926869D1*
X1605651Y973759D1*
X1627266Y997205D2*
X1630593Y993877D1*
X1633998Y997205D1*
X1630593Y1000609D1*
X1627266Y997205D1*
X1630593Y973759D2*
Y926869D1*
X1665672Y997205D2*
Y940255D1*
X1668999Y930273D1*
X1675731Y926869D1*
X1682386D1*
X1655613Y973759D2*
X1679058D1*
X1744237Y963700D2*
X1737505Y970432D1*
X1730773Y973759D1*
X1720791D1*
X1714060Y970432D1*
X1707405Y963700D1*
X1704000Y953641D1*
Y946987D1*
X1707405Y936928D1*
X1714060Y930273D1*
X1720791Y926869D1*
X1730773D1*
X1737505Y930273D1*
X1744237Y936928D1*
X1765852Y997205D2*
Y926869D1*
Y960373D2*
X1775911Y970432D1*
X1782643Y973759D1*
X1792702D1*
X1799356Y970432D1*
X1802683Y960373D1*
Y926869D1*
X2832829Y1104056D2*
D99*
X2838599Y1106974D1*
X2847221Y1115530D1*
Y1055308D1*
X2868666Y1101204D2*
Y1104056D1*
X2871518Y1109826D1*
X2874370Y1112678D1*
X2880140Y1115530D1*
X2891614D1*
X2897318Y1112678D1*
X2900170Y1109826D1*
X2903088Y1104056D1*
Y1098352D1*
X2900170Y1092582D1*
X2894466Y1084026D1*
X2865748Y1055308D1*
X2905940D1*
X2924467Y1115596D2*
X2947415Y1055308D1*
X2970363Y1115596D1*
X2988890D2*
Y1055308D1*
X3008986D1*
X3017608Y1058227D1*
X3023378Y1063930D1*
X3026230Y1069700D1*
X3029082Y1078256D1*
Y1092648D1*
X3026230Y1101270D1*
X3023378Y1106974D1*
X3017608Y1112744D1*
X3008986Y1115596D1*
X2988890D1*
X3090653Y1101270D2*
X3087801Y1106974D1*
X3082031Y1112744D1*
X3076327Y1115596D1*
X3064853D1*
X3059083Y1112744D1*
X3053379Y1106974D1*
X3050461Y1101270D1*
X3047609Y1092648D1*
Y1078256D1*
X3050461Y1069700D1*
X3053379Y1063930D1*
X3059083Y1058227D1*
X3064853Y1055308D1*
X3076327D1*
X3082031Y1058227D1*
X3087801Y1063930D1*
X3090653Y1069700D1*
X4021117Y3478458D2*
D100*
X4036869D1*
X4028280Y3466984D1*
X4032591D1*
X4035443Y3465558D1*
X4036869Y3464132D1*
X4038328Y3459821D1*
Y3456969D1*
X4036869Y3452658D1*
X4034017Y3449773D1*
X4029706Y3448347D1*
X4025395D1*
X4021117Y3449773D1*
X4019691Y3451232D1*
X4018232Y3454084D1*
X4047591Y3478491D2*
X4059065Y3448347D1*
X4070539Y3478491D1*
X4082688Y3478458D2*
X4098440D1*
X4089851Y3466984D1*
X4094162D1*
X4097014Y3465558D1*
X4098440Y3464132D1*
X4099899Y3459821D1*
Y3456969D1*
X4098440Y3452658D1*
X4095588Y3449773D1*
X4091277Y3448347D1*
X4086966D1*
X4082688Y3449773D1*
X4081262Y3451232D1*
X4079803Y3454084D1*
X4138323Y3478491D2*
Y3448347D1*
X4151256D1*
X4155567Y3449806D1*
X4156993Y3451232D1*
X4158419Y3454084D1*
Y3458395D1*
X4156993Y3461280D1*
X4155567Y3462706D1*
X4151256Y3464132D1*
X4155567Y3465591D1*
X4156993Y3467017D1*
X4158419Y3469869D1*
Y3472754D1*
X4156993Y3475606D1*
X4155567Y3477065D1*
X4151256Y3478491D1*
X4138323D1*
Y3464132D2*
X4151256D1*
X4167683Y3468443D2*
Y3448347D1*
Y3459821D2*
X4169142Y3464132D1*
X4171994Y3467017D1*
X4174879Y3468443D1*
X4179190D1*
X4188453Y3478491D2*
X4189879Y3477065D1*
X4191338Y3478491D1*
X4189879Y3479950D1*
X4188453Y3478491D1*
X4189879Y3468443D2*
Y3448347D1*
X4217813Y3478491D2*
Y3448347D1*
Y3464132D2*
X4214961Y3467017D1*
X4212076Y3468443D1*
X4207765D1*
X4204913Y3467017D1*
X4202028Y3464132D1*
X4200602Y3459821D1*
Y3456969D1*
X4202028Y3452658D1*
X4204913Y3449806D1*
X4207765Y3448347D1*
X4212076D1*
X4214961Y3449806D1*
X4217813Y3452658D1*
X4244287Y3467017D2*
Y3444036D1*
X4242861Y3439758D1*
X4241435Y3438299D1*
X4238550Y3436873D1*
X4234239D1*
X4231387Y3438299D1*
X4244287Y3462706D2*
X4241435Y3465558D1*
X4238550Y3467017D1*
X4234239D1*
X4231387Y3465558D1*
X4228502Y3462706D1*
X4227076Y3458395D1*
Y3455510D1*
X4228502Y3451232D1*
X4231387Y3448347D1*
X4234239Y3446921D1*
X4238550D1*
X4241435Y3448347D1*
X4244287Y3451232D1*
X4253551Y3459821D2*
X4270762D1*
Y3462706D1*
X4269336Y3465591D1*
X4267910Y3467017D1*
X4265025Y3468443D1*
X4260714D1*
X4257862Y3467017D1*
X4254977Y3464132D1*
X4253551Y3459821D1*
Y3456969D1*
X4254977Y3452658D1*
X4257862Y3449806D1*
X4260714Y3448347D1*
X4265025D1*
X4267910Y3449806D1*
X4270762Y3452658D1*
X3771117Y3368458D2*
X3786869D1*
X3778280Y3356984D1*
X3782591D1*
X3785443Y3355558D1*
X3786869Y3354132D1*
X3788328Y3349821D1*
Y3346969D1*
X3786869Y3342658D1*
X3784017Y3339773D1*
X3779706Y3338347D1*
X3775395D1*
X3771117Y3339773D1*
X3769691Y3341232D1*
X3768232Y3344084D1*
X3797591Y3368491D2*
X3809065Y3338347D1*
X3820539Y3368491D1*
X3832688Y3368458D2*
X3848440D1*
X3839851Y3356984D1*
X3844162D1*
X3847014Y3355558D1*
X3848440Y3354132D1*
X3849899Y3349821D1*
Y3346969D1*
X3848440Y3342658D1*
X3845588Y3339773D1*
X3841277Y3338347D1*
X3836966D1*
X3832688Y3339773D1*
X3831262Y3341232D1*
X3829803Y3344084D1*
X3906960Y3368491D2*
X3888323D1*
Y3338347D1*
X3906960D1*
X3888323Y3354132D2*
X3899797D1*
X3916223Y3358443D2*
Y3338347D1*
Y3352706D2*
X3920534Y3357017D1*
X3923420Y3358443D1*
X3927697D1*
X3930582Y3357017D1*
X3932008Y3352706D1*
Y3338347D1*
X3958483Y3358443D2*
Y3338347D1*
Y3354132D2*
X3955631Y3357017D1*
X3952746Y3358443D1*
X3948468D1*
X3945583Y3357017D1*
X3942731Y3354132D1*
X3941272Y3349821D1*
Y3346969D1*
X3942731Y3342658D1*
X3945583Y3339806D1*
X3948468Y3338347D1*
X3952746D1*
X3955631Y3339806D1*
X3958483Y3342658D1*
X3967746Y3368491D2*
Y3338347D1*
Y3354132D2*
X3970631Y3357017D1*
X3973483Y3358443D1*
X3977794D1*
X3980646Y3357017D1*
X3983531Y3354132D1*
X3984957Y3349821D1*
Y3346969D1*
X3983531Y3342658D1*
X3980646Y3339806D1*
X3977794Y3338347D1*
X3973483D1*
X3970631Y3339806D1*
X3967746Y3342658D1*
X3994221Y3368491D2*
Y3338347D1*
X4003484Y3349821D2*
X4020695D1*
Y3352706D1*
X4019269Y3355591D1*
X4017843Y3357017D1*
X4014958Y3358443D1*
X4010647D1*
X4007795Y3357017D1*
X4004910Y3354132D1*
X4003484Y3349821D1*
Y3346969D1*
X4004910Y3342658D1*
X4007795Y3339806D1*
X4010647Y3338347D1*
X4014958D1*
X4017843Y3339806D1*
X4020695Y3342658D1*
X3565443Y3483458D2*
X3551117D1*
X3549691Y3470558D1*
X3551117Y3471984D1*
X3555428Y3473443D1*
X3559706D1*
X3564017Y3471984D1*
X3566902Y3469132D1*
X3568328Y3464821D1*
Y3461969D1*
X3566902Y3457658D1*
X3564017Y3454773D1*
X3559706Y3453347D1*
X3555428D1*
X3551117Y3454773D1*
X3549691Y3456232D1*
X3548232Y3459084D1*
X3577591Y3483491D2*
X3589065Y3453347D1*
X3600539Y3483491D1*
X3609803D2*
Y3453347D1*
X3619851D1*
X3624162Y3454806D1*
X3627047Y3457658D1*
X3628473Y3460543D1*
X3629899Y3464821D1*
Y3472017D1*
X3628473Y3476328D1*
X3627047Y3479180D1*
X3624162Y3482065D1*
X3619851Y3483491D1*
X3609803D1*
X3660684Y3476328D2*
X3659258Y3479180D1*
X3656373Y3482065D1*
X3653521Y3483491D1*
X3647784D1*
X3644899Y3482065D1*
X3642047Y3479180D1*
X3640588Y3476328D1*
X3639162Y3472017D1*
Y3464821D1*
X3640588Y3460543D1*
X3642047Y3457658D1*
X3644899Y3454806D1*
X3647784Y3453347D1*
X3653521D1*
X3656373Y3454806D1*
X3659258Y3457658D1*
X3660684Y3460543D1*
X3699108Y3483491D2*
Y3453347D1*
X3708372Y3473443D2*
Y3453347D1*
Y3467706D2*
X3712683Y3472017D1*
X3715568Y3473443D1*
X3719846D1*
X3722731Y3472017D1*
X3724157Y3467706D1*
Y3453347D1*
X568650Y2243092D2*
D98*
X598828D1*
X608809Y2246419D1*
X612214Y2249824D1*
X615541Y2256478D1*
Y2266537D1*
X612214Y2273192D1*
X608809Y2276596D1*
X598828Y2279924D1*
X568650D1*
Y2209588D1*
X637156Y2256478D2*
Y2222974D1*
X640483Y2212992D1*
X647215Y2209588D1*
X657274D1*
X663929Y2212992D1*
X673988Y2222974D1*
Y2256478D2*
Y2209588D1*
X695603Y2256478D2*
Y2209588D1*
Y2243092D2*
X705662Y2253151D1*
X712393Y2256478D1*
X722375D1*
X729107Y2253151D1*
X732434Y2243092D1*
Y2209588D1*
Y2243092D2*
X742493Y2253151D1*
X749225Y2256478D1*
X759207D1*
X765939Y2253151D1*
X769343Y2243092D1*
Y2209588D1*
X790958Y2256478D2*
Y2186142D1*
Y2246419D2*
X797690Y2253074D1*
X804344Y2256478D1*
X814403D1*
X821135Y2253074D1*
X827790Y2246419D1*
X831194Y2236360D1*
Y2229628D1*
X827790Y2219647D1*
X821135Y2212915D1*
X814403Y2209588D1*
X804344D1*
X797690Y2212915D1*
X790958Y2219647D1*
X463601Y3059924D2*
Y2989588D1*
X503759D1*
X565533Y3036478D2*
Y2989588D1*
Y3026419D2*
X558879Y3033151D1*
X552147Y3036478D1*
X542165D1*
X535433Y3033151D1*
X528779Y3026419D1*
X525374Y3016360D1*
Y3009706D1*
X528779Y2999647D1*
X535433Y2992992D1*
X542165Y2989588D1*
X552147D1*
X558879Y2992992D1*
X565533Y2999647D1*
X587148Y3036478D2*
Y2989588D1*
Y3023092D2*
X597207Y3033151D1*
X603939Y3036478D1*
X613921D1*
X620652Y3033151D1*
X623980Y3023092D1*
Y2989588D1*
Y3023092D2*
X634039Y3033151D1*
X640771Y3036478D1*
X650752D1*
X657484Y3033151D1*
X660889Y3023092D1*
Y2989588D1*
X682504Y3036478D2*
Y2966142D1*
Y3026419D2*
X689235Y3033074D1*
X695890Y3036478D1*
X705949D1*
X712681Y3033074D1*
X719335Y3026419D1*
X722740Y3016360D1*
Y3009628D1*
X719335Y2999647D1*
X712681Y2992915D1*
X705949Y2989588D1*
X695890D1*
X689235Y2992915D1*
X682504Y2999647D1*
X4079413Y2511778D2*
X4052563Y2582114D1*
X4025791Y2511778D1*
X4035850Y2535223D2*
X4069354D1*
X4101028Y2558669D2*
Y2511778D1*
Y2538551D2*
X4104433Y2548610D1*
X4111087Y2555341D1*
X4117819Y2558669D1*
X4127878D1*
X4189652Y2582114D2*
Y2511778D1*
Y2548610D2*
X4182998Y2555341D1*
X4176266Y2558669D1*
X4166207D1*
X4159552Y2555341D1*
X4152820Y2548610D1*
X4149493Y2538551D1*
Y2531896D1*
X4152820Y2521837D1*
X4159552Y2515183D1*
X4166207Y2511778D1*
X4176266D1*
X4182998Y2515183D1*
X4189652Y2521837D1*
X4211267Y2558669D2*
Y2525164D1*
X4214594Y2515183D1*
X4221326Y2511778D1*
X4231385D1*
X4238039Y2515183D1*
X4248099Y2525164D1*
Y2558669D2*
Y2511778D1*
X4269713Y2582114D2*
X4273041Y2578787D1*
X4276445Y2582114D1*
X4273041Y2585519D1*
X4269713Y2582114D1*
X4273041Y2558669D2*
Y2511778D1*
X4298060Y2558669D2*
Y2511778D1*
Y2545282D2*
X4308119Y2555341D1*
X4314851Y2558669D1*
X4324833D1*
X4331565Y2555341D1*
X4334892Y2545282D1*
Y2511778D1*
X4373220Y2558669D2*
X4366566Y2555341D1*
X4359834Y2548610D1*
X4356507Y2538551D1*
Y2531896D1*
X4359834Y2521837D1*
X4366566Y2515183D1*
X4373220Y2511778D1*
X4383279D1*
X4390011Y2515183D1*
X4396666Y2521837D1*
X4400070Y2531896D1*
Y2538551D1*
X4396666Y2548610D1*
X4390011Y2555341D1*
X4383279Y2558669D1*
X4373220D1*
X4489727Y2545282D2*
X4519904D1*
X4529885Y2548610D1*
X4533290Y2552014D1*
X4536617Y2558669D1*
Y2568728D1*
X4533290Y2575382D1*
X4529885Y2578787D1*
X4519904Y2582114D1*
X4489727D1*
Y2511778D1*
X4558232Y2558669D2*
Y2511778D1*
Y2538551D2*
X4561637Y2548610D1*
X4568291Y2555341D1*
X4575023Y2558669D1*
X4585082D1*
X4623411D2*
X4616756Y2555341D1*
X4610024Y2548610D1*
X4606697Y2538551D1*
Y2531896D1*
X4610024Y2521837D1*
X4616756Y2515183D1*
X4623411Y2511778D1*
X4633470D1*
X4640201Y2515183D1*
X4646856Y2521837D1*
X4650261Y2531896D1*
Y2538551D1*
X4646856Y2548610D1*
X4640201Y2555341D1*
X4633470Y2558669D1*
X4623411D1*
X4793462Y2511778D2*
Y2582114D1*
X4766689Y2511778D1*
X4739917Y2582114D1*
Y2511778D1*
X4815077Y2582114D2*
X4818404Y2578787D1*
X4821809Y2582114D1*
X4818404Y2585519D1*
X4815077Y2582114D1*
X4818404Y2558669D2*
Y2511778D1*
X4843424Y2558669D2*
Y2511778D1*
Y2545282D2*
X4853483Y2555341D1*
X4860215Y2558669D1*
X4870196D1*
X4876928Y2555341D1*
X4880255Y2545282D1*
Y2511778D1*
X4901870Y2582114D2*
X4905197Y2578787D1*
X4908602Y2582114D1*
X4905197Y2585519D1*
X4901870Y2582114D1*
X4905197Y2558669D2*
Y2511778D1*
X5038417Y2582037D2*
X5004990D1*
X5001663Y2551937D1*
X5004990Y2555264D1*
X5015049Y2558669D1*
X5025031D1*
X5035090Y2555264D1*
X5041822Y2548610D1*
X5045149Y2538551D1*
Y2531896D1*
X5041822Y2521837D1*
X5035090Y2515105D1*
X5025031Y2511778D1*
X5015049D1*
X5004990Y2515105D1*
X5001663Y2518510D1*
X4998258Y2525164D1*
X5066764Y2582114D2*
X5093537Y2511778D1*
X5120309Y2582114D1*
X1855950Y2872037D2*
X1822523D1*
X1819195Y2841937D1*
X1822523Y2845264D1*
X1832582Y2848669D1*
X1842563D1*
X1852622Y2845264D1*
X1859354Y2838610D1*
X1862681Y2828551D1*
Y2821896D1*
X1859354Y2811837D1*
X1852622Y2805105D1*
X1842563Y2801778D1*
X1832582D1*
X1822523Y2805105D1*
X1819195Y2808510D1*
X1815791Y2815164D1*
X1884296Y2872114D2*
X1911069Y2801778D1*
X1937842Y2872114D1*
X1959457D2*
Y2801778D1*
X1982902D1*
X1992961Y2805183D1*
X1999693Y2811837D1*
X2003020Y2818569D1*
X2006347Y2828551D1*
Y2845341D1*
X2003020Y2855400D1*
X1999693Y2862055D1*
X1992961Y2868787D1*
X1982902Y2872114D1*
X1959457D1*
X2078180Y2855400D2*
X2074853Y2862055D1*
X2068121Y2868787D1*
X2061467Y2872114D1*
X2048080D1*
X2041348Y2868787D1*
X2034694Y2862055D1*
X2031289Y2855400D1*
X2027962Y2845341D1*
Y2828551D1*
X2031289Y2818569D1*
X2034694Y2811837D1*
X2041348Y2805183D1*
X2048080Y2801778D1*
X2061467D1*
X2068121Y2805183D1*
X2074853Y2811837D1*
X2078180Y2818569D1*
X2167836Y2872114D2*
Y2801778D1*
X2191282D1*
X2201341Y2805183D1*
X2208073Y2811837D1*
X2211400Y2818569D1*
X2214727Y2828551D1*
Y2845341D1*
X2211400Y2855400D1*
X2208073Y2862055D1*
X2201341Y2868787D1*
X2191282Y2872114D1*
X2167836D1*
X2236342Y2848669D2*
Y2815164D1*
X2239669Y2805183D1*
X2246401Y2801778D1*
X2256460D1*
X2263114Y2805183D1*
X2273174Y2815164D1*
Y2848669D2*
Y2801778D1*
X2334947Y2848669D2*
Y2801778D1*
Y2838610D2*
X2328293Y2845341D1*
X2321561Y2848669D1*
X2311579D1*
X2304848Y2845341D1*
X2298193Y2838610D1*
X2294788Y2828551D1*
Y2821896D1*
X2298193Y2811837D1*
X2304848Y2805183D1*
X2311579Y2801778D1*
X2321561D1*
X2328293Y2805183D1*
X2334947Y2811837D1*
X2356562Y2872114D2*
Y2801778D1*
X2446219Y2838610D2*
X2476318D1*
X2486377Y2842014D1*
X2489782Y2845341D1*
X2493109Y2851996D1*
Y2858728D1*
X2489782Y2865382D1*
X2486377Y2868787D1*
X2476318Y2872114D1*
X2446219D1*
Y2801778D1*
X2469664Y2838610D2*
X2493109Y2801778D1*
X2514724Y2828551D2*
X2554883D1*
Y2835282D1*
X2551556Y2842014D1*
X2548229Y2845341D1*
X2541497Y2848669D1*
X2531438D1*
X2524783Y2845341D1*
X2518051Y2838610D1*
X2514724Y2828551D1*
Y2821896D1*
X2518051Y2811837D1*
X2524783Y2805183D1*
X2531438Y2801778D1*
X2541497D1*
X2548229Y2805183D1*
X2554883Y2811837D1*
X2576498Y2872114D2*
Y2801778D1*
X2638272Y2848669D2*
Y2801778D1*
Y2838610D2*
X2631617Y2845341D1*
X2624885Y2848669D1*
X2614904D1*
X2608172Y2845341D1*
X2601518Y2838610D1*
X2598113Y2828551D1*
Y2821896D1*
X2601518Y2811837D1*
X2608172Y2805183D1*
X2614904Y2801778D1*
X2624885D1*
X2631617Y2805183D1*
X2638272Y2811837D1*
X2663291Y2848669D2*
X2683332Y2801778D1*
X2676678Y2788392D1*
X2669946Y2781660D1*
X2663291Y2778333D1*
X2659887D1*
X2703450Y2848669D2*
X2683332Y2801778D1*
X2846652D2*
Y2872114D1*
X2819879Y2801778D1*
X2793106Y2872114D1*
Y2801778D1*
X2884980Y2848669D2*
X2878326Y2845341D1*
X2871594Y2838610D1*
X2868267Y2828551D1*
Y2821896D1*
X2871594Y2811837D1*
X2878326Y2805183D1*
X2884980Y2801778D1*
X2895039D1*
X2901771Y2805183D1*
X2908425Y2811837D1*
X2911830Y2821896D1*
Y2828551D1*
X2908425Y2838610D1*
X2901771Y2845341D1*
X2895039Y2848669D1*
X2884980D1*
X2973604Y2872114D2*
Y2801778D1*
Y2838610D2*
X2966949Y2845341D1*
X2960217Y2848669D1*
X2950158D1*
X2943504Y2845341D1*
X2936772Y2838610D1*
X2933445Y2828551D1*
Y2821896D1*
X2936772Y2811837D1*
X2943504Y2805183D1*
X2950158Y2801778D1*
X2960217D1*
X2966949Y2805183D1*
X2973604Y2811837D1*
X2995219Y2848669D2*
Y2815164D1*
X2998546Y2805183D1*
X3005278Y2801778D1*
X3015337D1*
X3021991Y2805183D1*
X3032050Y2815164D1*
Y2848669D2*
Y2801778D1*
X3053665Y2872114D2*
Y2801778D1*
X3075280Y2828551D2*
X3115439D1*
Y2835282D1*
X3112112Y2842014D1*
X3108785Y2845341D1*
X3102053Y2848669D1*
X3091994D1*
X3085339Y2845341D1*
X3078607Y2838610D1*
X3075280Y2828551D1*
Y2821896D1*
X3078607Y2811837D1*
X3085339Y2805183D1*
X3091994Y2801778D1*
X3102053D1*
X3108785Y2805183D1*
X3115439Y2811837D1*
X2314413Y4236778D2*
X2287563Y4307114D1*
X2260791Y4236778D1*
X2270850Y4260223D2*
X2304354D1*
X2376187Y4307114D2*
Y4236778D1*
Y4273610D2*
X2369533Y4280341D1*
X2362801Y4283669D1*
X2352742D1*
X2346087Y4280341D1*
X2339355Y4273610D1*
X2336028Y4263551D1*
Y4256896D1*
X2339355Y4246837D1*
X2346087Y4240183D1*
X2352742Y4236778D1*
X2362801D1*
X2369533Y4240183D1*
X2376187Y4246837D1*
X2437961Y4283669D2*
Y4236778D1*
Y4273610D2*
X2431306Y4280341D1*
X2424575Y4283669D1*
X2414593D1*
X2407861Y4280341D1*
X2401207Y4273610D1*
X2397802Y4263551D1*
Y4256896D1*
X2401207Y4246837D1*
X2407861Y4240183D1*
X2414593Y4236778D1*
X2424575D1*
X2431306Y4240183D1*
X2437961Y4246837D1*
X2486348Y4307114D2*
X2479694D1*
X2472962Y4303787D1*
X2469635Y4293728D1*
Y4236778D1*
X2459576Y4283669D2*
X2483021D1*
X2507963D2*
Y4236778D1*
Y4263551D2*
X2511368Y4273610D1*
X2518022Y4280341D1*
X2524754Y4283669D1*
X2534813D1*
X2556428D2*
Y4250164D1*
X2559755Y4240183D1*
X2566487Y4236778D1*
X2576546D1*
X2583201Y4240183D1*
X2593260Y4250164D1*
Y4283669D2*
Y4236778D1*
X2614875Y4307114D2*
X2618202Y4303787D1*
X2621607Y4307114D1*
X2618202Y4310519D1*
X2614875Y4307114D1*
X2618202Y4283669D2*
Y4236778D1*
X2653281Y4307114D2*
Y4250164D1*
X2656608Y4240183D1*
X2663340Y4236778D1*
X2669994D1*
X2643222Y4283669D2*
X2666667D1*
X2803214Y4307114D2*
X2759650D1*
Y4236778D1*
Y4273610D2*
X2786423D1*
X2824829Y4263551D2*
X2864988D1*
Y4270282D1*
X2861660Y4277014D1*
X2858333Y4280341D1*
X2851601Y4283669D1*
X2841542D1*
X2834888Y4280341D1*
X2828156Y4273610D1*
X2824829Y4263551D1*
Y4256896D1*
X2828156Y4246837D1*
X2834888Y4240183D1*
X2841542Y4236778D1*
X2851601D1*
X2858333Y4240183D1*
X2864988Y4246837D1*
X2926761Y4283669D2*
Y4236778D1*
Y4273610D2*
X2920107Y4280341D1*
X2913375Y4283669D1*
X2903393D1*
X2896662Y4280341D1*
X2890007Y4273610D1*
X2886603Y4263551D1*
Y4256896D1*
X2890007Y4246837D1*
X2896662Y4240183D1*
X2903393Y4236778D1*
X2913375D1*
X2920107Y4240183D1*
X2926761Y4246837D1*
X2958435Y4307114D2*
Y4250164D1*
X2961763Y4240183D1*
X2968495Y4236778D1*
X2975149D1*
X2948376Y4283669D2*
X2971822D1*
X2996764Y4307114D2*
Y4236778D1*
Y4270282D2*
X3006823Y4280341D1*
X3013555Y4283669D1*
X3023614D1*
X3030268Y4280341D1*
X3033596Y4270282D1*
Y4236778D1*
X3055210Y4263551D2*
X3095369D1*
Y4270282D1*
X3092042Y4277014D1*
X3088715Y4280341D1*
X3081983Y4283669D1*
X3071924D1*
X3065270Y4280341D1*
X3058538Y4273610D1*
X3055210Y4263551D1*
Y4256896D1*
X3058538Y4246837D1*
X3065270Y4240183D1*
X3071924Y4236778D1*
X3081983D1*
X3088715Y4240183D1*
X3095369Y4246837D1*
X3116984Y4283669D2*
Y4236778D1*
Y4263551D2*
X3120389Y4273610D1*
X3127043Y4280341D1*
X3133775Y4283669D1*
X3143834D1*
X2262443Y4172114D2*
Y4101778D1*
X2309334Y4172114D2*
Y4101778D1*
X2262443Y4138610D2*
X2309334D1*
X2330949Y4148669D2*
Y4115164D1*
X2334276Y4105183D1*
X2341008Y4101778D1*
X2351067D1*
X2357721Y4105183D1*
X2367780Y4115164D1*
Y4148669D2*
Y4101778D1*
X2389395Y4148669D2*
X2426227D1*
X2389395Y4101778D1*
X2426227D1*
X2447842Y4148669D2*
X2484673D1*
X2447842Y4101778D1*
X2484673D1*
X2546447Y4148669D2*
Y4101778D1*
Y4138610D2*
X2539793Y4145341D1*
X2533061Y4148669D1*
X2523079D1*
X2516347Y4145341D1*
X2509693Y4138610D1*
X2506288Y4128551D1*
Y4121896D1*
X2509693Y4111837D1*
X2516347Y4105183D1*
X2523079Y4101778D1*
X2533061D1*
X2539793Y4105183D1*
X2546447Y4111837D1*
X2568062Y4172114D2*
Y4101778D1*
Y4135282D2*
X2578121Y4145341D1*
X2584853Y4148669D1*
X2594912D1*
X2601567Y4145341D1*
X2604894Y4135282D1*
Y4101778D1*
X2738036Y4172114D2*
X2694550D1*
Y4101778D1*
X2738036D1*
X2694550Y4138610D2*
X2721323D1*
X2806542Y4162055D2*
X2799887Y4168787D1*
X2789828Y4172114D1*
X2776442D1*
X2766383Y4168787D1*
X2759651Y4162055D1*
Y4155400D1*
X2763056Y4148669D1*
X2766383Y4145341D1*
X2773037Y4142014D1*
X2793155Y4135282D1*
X2799887Y4131955D1*
X2803215Y4128551D1*
X2806542Y4121896D1*
Y4111837D1*
X2799887Y4105183D1*
X2789828Y4101778D1*
X2776442D1*
X2766383Y4105183D1*
X2759651Y4111837D1*
X2828157Y4135282D2*
X2858334D1*
X2868316Y4138610D1*
X2871720Y4142014D1*
X2875047Y4148669D1*
Y4158728D1*
X2871720Y4165382D1*
X2868316Y4168787D1*
X2858334Y4172114D1*
X2828157D1*
Y4101778D1*
X2913376Y4172037D2*
X2903394Y4168709D1*
X2899990Y4162055D1*
Y4155323D1*
X2903394Y4148669D1*
X2910049Y4145264D1*
X2923435Y4141937D1*
X2933494Y4138610D1*
X2940148Y4131878D1*
X2943476Y4125223D1*
Y4115164D1*
X2940148Y4108510D1*
X2936821Y4105105D1*
X2926762Y4101778D1*
X2913376D1*
X2903394Y4105105D1*
X2899990Y4108510D1*
X2896662Y4115164D1*
Y4125223D1*
X2899990Y4131878D1*
X2906721Y4138610D1*
X2916703Y4141937D1*
X2930089Y4145264D1*
X2936821Y4148669D1*
X2940148Y4155323D1*
Y4162055D1*
X2936821Y4168709D1*
X2926762Y4172037D1*
X2913376D1*
X2968495Y4155323D2*
Y4158650D1*
X2971822Y4165382D1*
X2975150Y4168709D1*
X2981881Y4172037D1*
X2995268D1*
X3001922Y4168709D1*
X3005249Y4165382D1*
X3008654Y4158650D1*
Y4151996D1*
X3005249Y4145264D1*
X2998595Y4135282D1*
X2965091Y4101778D1*
X3011981D1*
X3073755Y4162055D2*
X3070428Y4168709D1*
X3060369Y4172037D1*
X3053714D1*
X3043655Y4168709D1*
X3036923Y4158650D1*
X3033596Y4141937D1*
Y4125223D1*
X3036923Y4111837D1*
X3043655Y4105105D1*
X3053714Y4101778D1*
X3057042D1*
X3067023Y4105105D1*
X3073755Y4111837D1*
X3077082Y4121896D1*
Y4125223D1*
X3073755Y4135282D1*
X3067023Y4141937D1*
X3057042Y4145264D1*
X3053714D1*
X3043655Y4141937D1*
X3036923Y4135282D1*
X3033596Y4125223D1*
X3138856Y4162055D2*
X3135529Y4168709D1*
X3125470Y4172037D1*
X3118815D1*
X3108756Y4168709D1*
X3102024Y4158650D1*
X3098697Y4141937D1*
Y4125223D1*
X3102024Y4111837D1*
X3108756Y4105105D1*
X3118815Y4101778D1*
X3122143D1*
X3132124Y4105105D1*
X3138856Y4111837D1*
X3142183Y4121896D1*
Y4125223D1*
X3138856Y4135282D1*
X3132124Y4141937D1*
X3122143Y4145264D1*
X3118815D1*
X3108756Y4141937D1*
X3102024Y4135282D1*
X3098697Y4125223D1*
X4583601Y3559924D2*
Y3489588D1*
X4623759D1*
X4695592Y3543210D2*
X4692265Y3549865D1*
X4685533Y3556596D1*
X4678879Y3559924D1*
X4665492D1*
X4658761Y3556596D1*
X4652106Y3549865D1*
X4648702Y3543210D1*
X4645374Y3533151D1*
Y3516360D1*
X4648702Y3506379D1*
X4652106Y3499647D1*
X4658761Y3492992D1*
X4665492Y3489588D1*
X4678879D1*
X4685533Y3492992D1*
X4692265Y3499647D1*
X4695592Y3506379D1*
X4717207Y3559924D2*
Y3489588D1*
X4740652D1*
X4750712Y3492992D1*
X4757443Y3499647D1*
X4760771Y3506379D1*
X4764098Y3516360D1*
Y3533151D1*
X4760771Y3543210D1*
X4757443Y3549865D1*
X4750712Y3556596D1*
X4740652Y3559924D1*
X4717207D1*
X3794233Y1055055D2*
D101*
X3775131D1*
X3773230Y1037855D1*
X3775131Y1039756D1*
X3780879Y1041702D1*
X3786583D1*
X3792331Y1039756D1*
X3796178Y1035954D1*
X3798079Y1030206D1*
Y1026403D1*
X3796178Y1020655D1*
X3792331Y1016808D1*
X3786583Y1014907D1*
X3780879D1*
X3775131Y1016808D1*
X3773230Y1018754D1*
X3771285Y1022556D1*
X3810431Y1055099D2*
X3825729Y1014907D1*
X3841028Y1055099D1*
X3888079Y1099351D2*
X3884277Y1103198D1*
X3878529Y1105099D1*
X3870879D1*
X3865131Y1103198D1*
X3861285Y1099351D1*
Y1095548D1*
X3863230Y1091702D1*
X3865131Y1089800D1*
X3868934Y1087899D1*
X3880430Y1084052D1*
X3884277Y1082151D1*
X3886178Y1080206D1*
X3888079Y1076403D1*
Y1070655D1*
X3884277Y1066852D1*
X3878529Y1064907D1*
X3870879D1*
X3865131Y1066852D1*
X3861285Y1070655D1*
X3900431Y1105099D2*
X3902332Y1103198D1*
X3904277Y1105099D1*
X3902332Y1107044D1*
X3900431Y1105099D1*
X3902332Y1091702D2*
Y1064907D1*
X3939577Y1089800D2*
Y1059159D1*
X3937676Y1053455D1*
X3935774Y1051510D1*
X3931927Y1049608D1*
X3926179D1*
X3922377Y1051510D1*
X3939577Y1084052D2*
X3935774Y1087855D1*
X3931927Y1089800D1*
X3926179D1*
X3922377Y1087855D1*
X3918530Y1084052D1*
X3916629Y1078304D1*
Y1074458D1*
X3918530Y1068754D1*
X3922377Y1064907D1*
X3926179Y1063006D1*
X3931927D1*
X3935774Y1064907D1*
X3939577Y1068754D1*
X3984981Y1150548D2*
X3983079Y1154351D1*
X3979233Y1158198D1*
X3975430Y1160099D1*
X3967781D1*
X3963934Y1158198D1*
X3960131Y1154351D1*
X3958186Y1150548D1*
X3956285Y1144800D1*
Y1135206D1*
X3958186Y1129502D1*
X3960131Y1125655D1*
X3963934Y1121852D1*
X3967781Y1119907D1*
X3975430D1*
X3979233Y1121852D1*
X3983079Y1125655D1*
X3984981Y1129502D1*
Y1135206D1*
X3975430D1*
X3997332Y1146702D2*
Y1119907D1*
Y1139052D2*
X4003080Y1144800D1*
X4006927Y1146702D1*
X4012631D1*
X4016477Y1144800D1*
X4018379Y1139052D1*
Y1119907D1*
X4053678Y1160099D2*
Y1119907D1*
Y1140954D2*
X4049875Y1144800D1*
X4046029Y1146702D1*
X4040281D1*
X4036478Y1144800D1*
X4032631Y1140954D1*
X4030730Y1135206D1*
Y1131403D1*
X4032631Y1125655D1*
X4036478Y1121852D1*
X4040281Y1119907D1*
X4046029D1*
X4049875Y1121852D1*
X4053678Y1125655D1*
X1324233Y1535055D2*
X1305131D1*
X1303230Y1517855D1*
X1305131Y1519756D1*
X1310879Y1521702D1*
X1316583D1*
X1322331Y1519756D1*
X1326178Y1515954D1*
X1328079Y1510206D1*
Y1506403D1*
X1326178Y1500655D1*
X1322331Y1496808D1*
X1316583Y1494907D1*
X1310879D1*
X1305131Y1496808D1*
X1303230Y1498754D1*
X1301285Y1502556D1*
X1340431Y1535099D2*
X1355729Y1494907D1*
X1371028Y1535099D1*
X1408079Y1444351D2*
X1404277Y1448198D1*
X1398529Y1450099D1*
X1390879D1*
X1385131Y1448198D1*
X1381285Y1444351D1*
Y1440548D1*
X1383230Y1436702D1*
X1385131Y1434800D1*
X1388934Y1432899D1*
X1400430Y1429052D1*
X1404277Y1427151D1*
X1406178Y1425206D1*
X1408079Y1421403D1*
Y1415655D1*
X1404277Y1411852D1*
X1398529Y1409907D1*
X1390879D1*
X1385131Y1411852D1*
X1381285Y1415655D1*
X1420431Y1450099D2*
X1422332Y1448198D1*
X1424277Y1450099D1*
X1422332Y1452044D1*
X1420431Y1450099D1*
X1422332Y1436702D2*
Y1409907D1*
X1459577Y1434800D2*
Y1404159D1*
X1457676Y1398455D1*
X1455774Y1396510D1*
X1451927Y1394608D1*
X1446179D1*
X1442377Y1396510D1*
X1459577Y1429052D2*
X1455774Y1432855D1*
X1451927Y1434800D1*
X1446179D1*
X1442377Y1432855D1*
X1438530Y1429052D1*
X1436629Y1423304D1*
Y1419458D1*
X1438530Y1413754D1*
X1442377Y1409907D1*
X1446179Y1408006D1*
X1451927D1*
X1455774Y1409907D1*
X1459577Y1413754D1*
X1514981Y1340548D2*
X1513079Y1344351D1*
X1509233Y1348198D1*
X1505430Y1350099D1*
X1497781D1*
X1493934Y1348198D1*
X1490131Y1344351D1*
X1488186Y1340548D1*
X1486285Y1334800D1*
Y1325206D1*
X1488186Y1319502D1*
X1490131Y1315655D1*
X1493934Y1311852D1*
X1497781Y1309907D1*
X1505430D1*
X1509233Y1311852D1*
X1513079Y1315655D1*
X1514981Y1319502D1*
Y1325206D1*
X1505430D1*
X1527332Y1336702D2*
Y1309907D1*
Y1329052D2*
X1533080Y1334800D1*
X1536927Y1336702D1*
X1542631D1*
X1546477Y1334800D1*
X1548379Y1329052D1*
Y1309907D1*
X1583678Y1350099D2*
Y1309907D1*
Y1330954D2*
X1579875Y1334800D1*
X1576029Y1336702D1*
X1570281D1*
X1566478Y1334800D1*
X1562631Y1330954D1*
X1560730Y1325206D1*
Y1321403D1*
X1562631Y1315655D1*
X1566478Y1311852D1*
X1570281Y1309907D1*
X1576029D1*
X1579875Y1311852D1*
X1583678Y1315655D1*
X2384981Y910548D2*
X2383079Y914351D1*
X2379233Y918198D1*
X2375430Y920099D1*
X2367781D1*
X2363934Y918198D1*
X2360131Y914351D1*
X2358186Y910548D1*
X2356285Y904800D1*
Y895206D1*
X2358186Y889502D1*
X2360131Y885655D1*
X2363934Y881852D1*
X2367781Y879907D1*
X2375430D1*
X2379233Y881852D1*
X2383079Y885655D1*
X2384981Y889502D1*
Y895206D1*
X2375430D1*
X2397332Y906702D2*
Y879907D1*
Y899052D2*
X2403080Y904800D1*
X2406927Y906702D1*
X2412631D1*
X2416477Y904800D1*
X2418379Y899052D1*
Y879907D1*
X2453678Y920099D2*
Y879907D1*
Y900954D2*
X2449875Y904800D1*
X2446029Y906702D1*
X2440281D1*
X2436478Y904800D1*
X2432631Y900954D1*
X2430730Y895206D1*
Y891403D1*
X2432631Y885655D1*
X2436478Y881852D1*
X2440281Y879907D1*
X2446029D1*
X2449875Y881852D1*
X2453678Y885655D1*
X2496285Y872405D2*
X2500131Y874351D1*
X2505879Y880055D1*
Y839907D1*
X2520176Y870504D2*
Y872405D1*
X2522078Y876252D1*
X2523979Y878153D1*
X2527826Y880055D1*
X2535475D1*
X2539277Y878153D1*
X2541179Y876252D1*
X2543124Y872405D1*
Y868603D1*
X2541179Y864756D1*
X2537376Y859052D1*
X2518231Y839907D1*
X2545025D1*
X2557377Y880099D2*
X2572676Y839907D1*
X2587974Y880099D1*
X2600326D2*
Y839907D1*
X2613723D1*
X2619471Y841852D1*
X2623318Y845655D1*
X2625219Y849502D1*
X2627120Y855206D1*
Y864800D1*
X2625219Y870548D1*
X2623318Y874351D1*
X2619471Y878198D1*
X2613723Y880099D1*
X2600326D1*
X2668168Y870548D2*
X2666266Y874351D1*
X2662419Y878198D1*
X2658617Y880099D1*
X2650968D1*
X2647121Y878198D1*
X2643318Y874351D1*
X2641373Y870548D1*
X2639472Y864800D1*
Y855206D1*
X2641373Y849502D1*
X2643318Y845655D1*
X2647121Y841852D1*
X2650968Y839907D1*
X2658617D1*
X2662419Y841852D1*
X2666266Y845655D1*
X2668168Y849502D1*
X824981Y2620548D2*
X823079Y2624351D1*
X819233Y2628198D1*
X815430Y2630099D1*
X807781D1*
X803934Y2628198D1*
X800131Y2624351D1*
X798186Y2620548D1*
X796285Y2614800D1*
Y2605206D1*
X798186Y2599502D1*
X800131Y2595655D1*
X803934Y2591852D1*
X807781Y2589907D1*
X815430D1*
X819233Y2591852D1*
X823079Y2595655D1*
X824981Y2599502D1*
Y2605206D1*
X815430D1*
X837332Y2616702D2*
Y2589907D1*
Y2609052D2*
X843080Y2614800D1*
X846927Y2616702D1*
X852631D1*
X856477Y2614800D1*
X858379Y2609052D1*
Y2589907D1*
X893678Y2630099D2*
Y2589907D1*
Y2610954D2*
X889875Y2614800D1*
X886029Y2616702D1*
X880281D1*
X876478Y2614800D1*
X872631Y2610954D1*
X870730Y2605206D1*
Y2601403D1*
X872631Y2595655D1*
X876478Y2591852D1*
X880281Y2589907D1*
X886029D1*
X889875Y2591852D1*
X893678Y2595655D1*
X826285Y2497405D2*
X830131Y2499351D1*
X835879Y2505055D1*
Y2464907D1*
X850176Y2495504D2*
Y2497405D1*
X852078Y2501252D1*
X853979Y2503153D1*
X857826Y2505055D1*
X865475D1*
X869277Y2503153D1*
X871179Y2501252D1*
X873124Y2497405D1*
Y2493603D1*
X871179Y2489756D1*
X867376Y2484052D1*
X848231Y2464907D1*
X875025D1*
X887377Y2505099D2*
X902676Y2464907D1*
X917974Y2505099D1*
X811285Y3217405D2*
X815131Y3219351D1*
X820879Y3225055D1*
Y3184907D1*
X835176Y3215504D2*
Y3217405D1*
X837078Y3221252D1*
X838979Y3223153D1*
X842826Y3225055D1*
X850475D1*
X854277Y3223153D1*
X856179Y3221252D1*
X858124Y3217405D1*
Y3213603D1*
X856179Y3209756D1*
X852376Y3204052D1*
X833231Y3184907D1*
X860025D1*
X872377Y3225099D2*
X887676Y3184907D1*
X902974Y3225099D1*
X849981Y3350548D2*
X848079Y3354351D1*
X844233Y3358198D1*
X840430Y3360099D1*
X832781D1*
X828934Y3358198D1*
X825131Y3354351D1*
X823186Y3350548D1*
X821285Y3344800D1*
Y3335206D1*
X823186Y3329502D1*
X825131Y3325655D1*
X828934Y3321852D1*
X832781Y3319907D1*
X840430D1*
X844233Y3321852D1*
X848079Y3325655D1*
X849981Y3329502D1*
Y3335206D1*
X840430D1*
X862332Y3346702D2*
Y3319907D1*
Y3339052D2*
X868080Y3344800D1*
X871927Y3346702D1*
X877631D1*
X881477Y3344800D1*
X883379Y3339052D1*
Y3319907D1*
X918678Y3360099D2*
Y3319907D1*
Y3340954D2*
X914875Y3344800D1*
X911029Y3346702D1*
X905281D1*
X901478Y3344800D1*
X897631Y3340954D1*
X895730Y3335206D1*
Y3331403D1*
X897631Y3325655D1*
X901478Y3321852D1*
X905281Y3319907D1*
X911029D1*
X914875Y3321852D1*
X918678Y3325655D1*
X4896882Y3309907D2*
Y3350099D1*
X4881583Y3309907D1*
X4866285Y3350099D1*
Y3309907D1*
X4909233Y3350099D2*
Y3309907D1*
X4948379Y3344351D2*
X4944577Y3348198D1*
X4938829Y3350099D1*
X4931179D1*
X4925431Y3348198D1*
X4921585Y3344351D1*
Y3340548D1*
X4923530Y3336702D1*
X4925431Y3334800D1*
X4929234Y3332899D1*
X4940730Y3329052D1*
X4944577Y3327151D1*
X4946478Y3325206D1*
X4948379Y3321403D1*
Y3315655D1*
X4944577Y3311852D1*
X4938829Y3309907D1*
X4931179D1*
X4925431Y3311852D1*
X4921585Y3315655D1*
X4972227Y3350099D2*
X4968380Y3348198D1*
X4964577Y3344351D1*
X4962632Y3340548D1*
X4960731Y3334800D1*
Y3325206D1*
X4962632Y3319502D1*
X4964577Y3315655D1*
X4968380Y3311852D1*
X4972227Y3309907D1*
X4979876D1*
X4983679Y3311852D1*
X4987525Y3315655D1*
X4989427Y3319502D1*
X4991328Y3325206D1*
Y3334800D1*
X4989427Y3340548D1*
X4987525Y3344351D1*
X4983679Y3348198D1*
X4979876Y3350099D1*
X4972227D1*
X4856882Y3439907D2*
Y3480099D1*
X4841583Y3439907D1*
X4826285Y3480099D1*
Y3439907D1*
X4880729Y3480099D2*
X4876883Y3478198D1*
X4873080Y3474351D1*
X4871135Y3470548D1*
X4869233Y3464800D1*
Y3455206D1*
X4871135Y3449502D1*
X4873080Y3445655D1*
X4876883Y3441852D1*
X4880729Y3439907D1*
X4888379D1*
X4892181Y3441852D1*
X4896028Y3445655D1*
X4897929Y3449502D1*
X4899830Y3455206D1*
Y3464800D1*
X4897929Y3470548D1*
X4896028Y3474351D1*
X4892181Y3478198D1*
X4888379Y3480099D1*
X4880729D1*
X4938977Y3474351D2*
X4935174Y3478198D1*
X4929426Y3480099D1*
X4921777D1*
X4916029Y3478198D1*
X4912182Y3474351D1*
Y3470548D1*
X4914127Y3466702D1*
X4916029Y3464800D1*
X4919831Y3462899D1*
X4931327Y3459052D1*
X4935174Y3457151D1*
X4937075Y3455206D1*
X4938977Y3451403D1*
Y3445655D1*
X4935174Y3441852D1*
X4929426Y3439907D1*
X4921777D1*
X4916029Y3441852D1*
X4912182Y3445655D1*
X4951328Y3480099D2*
Y3439907D1*
X4823079Y3609351D2*
X4819277Y3613198D1*
X4813529Y3615099D1*
X4805879D1*
X4800131Y3613198D1*
X4796285Y3609351D1*
Y3605548D1*
X4798230Y3601702D1*
X4800131Y3599800D1*
X4803934Y3597899D1*
X4815430Y3594052D1*
X4819277Y3592151D1*
X4821178Y3590206D1*
X4823079Y3586403D1*
Y3580655D1*
X4819277Y3576852D1*
X4813529Y3574907D1*
X4805879D1*
X4800131Y3576852D1*
X4796285Y3580655D1*
X4864127Y3605548D2*
X4862225Y3609351D1*
X4858379Y3613198D1*
X4854576Y3615099D1*
X4846927D1*
X4843080Y3613198D1*
X4839277Y3609351D1*
X4837332Y3605548D1*
X4835431Y3599800D1*
Y3590206D1*
X4837332Y3584502D1*
X4839277Y3580655D1*
X4843080Y3576852D1*
X4846927Y3574907D1*
X4854576D1*
X4858379Y3576852D1*
X4862225Y3580655D1*
X4864127Y3584502D1*
X4876478Y3615099D2*
Y3574907D1*
X4903273Y3615099D2*
X4876478Y3588304D1*
X4886029Y3597899D2*
X4903273Y3574907D1*
X4818079Y3734351D2*
X4814277Y3738198D1*
X4808529Y3740099D1*
X4800879D1*
X4795131Y3738198D1*
X4791285Y3734351D1*
Y3730548D1*
X4793230Y3726702D1*
X4795131Y3724800D1*
X4798934Y3722899D1*
X4810430Y3719052D1*
X4814277Y3717151D1*
X4816178Y3715206D1*
X4818079Y3711403D1*
Y3705655D1*
X4814277Y3701852D1*
X4808529Y3699907D1*
X4800879D1*
X4795131Y3701852D1*
X4791285Y3705655D1*
X4857225Y3734351D2*
X4853423Y3738198D1*
X4847675Y3740099D1*
X4840025D1*
X4834277Y3738198D1*
X4830431Y3734351D1*
Y3730548D1*
X4832376Y3726702D1*
X4834277Y3724800D1*
X4838080Y3722899D1*
X4849576Y3719052D1*
X4853423Y3717151D1*
X4855324Y3715206D1*
X4857225Y3711403D1*
Y3705655D1*
X4853423Y3701852D1*
X4847675Y3699907D1*
X4840025D1*
X4834277Y3701852D1*
X4830431Y3705655D1*
X4734981Y3860548D2*
X4733079Y3864351D1*
X4729233Y3868198D1*
X4725430Y3870099D1*
X4717781D1*
X4713934Y3868198D1*
X4710131Y3864351D1*
X4708186Y3860548D1*
X4706285Y3854800D1*
Y3845206D1*
X4708186Y3839502D1*
X4710131Y3835655D1*
X4713934Y3831852D1*
X4717781Y3829907D1*
X4725430D1*
X4729233Y3831852D1*
X4733079Y3835655D1*
X4734981Y3839502D1*
Y3845206D1*
X4725430D1*
X4747332Y3856702D2*
Y3829907D1*
Y3849052D2*
X4753080Y3854800D1*
X4756927Y3856702D1*
X4762631D1*
X4766477Y3854800D1*
X4768379Y3849052D1*
Y3829907D1*
X4803678Y3870099D2*
Y3829907D1*
Y3850954D2*
X4799875Y3854800D1*
X4796029Y3856702D1*
X4790281D1*
X4786478Y3854800D1*
X4782631Y3850954D1*
X4780730Y3845206D1*
Y3841403D1*
X4782631Y3835655D1*
X4786478Y3831852D1*
X4790281Y3829907D1*
X4796029D1*
X4799875Y3831852D1*
X4803678Y3835655D1*
X4634233Y4000055D2*
X4615131D1*
X4613230Y3982855D1*
X4615131Y3984756D1*
X4620879Y3986702D1*
X4626583D1*
X4632331Y3984756D1*
X4636178Y3980954D1*
X4638079Y3975206D1*
Y3971403D1*
X4636178Y3965655D1*
X4632331Y3961808D1*
X4626583Y3959907D1*
X4620879D1*
X4615131Y3961808D1*
X4613230Y3963754D1*
X4611285Y3967556D1*
X4650431Y4000099D2*
X4665729Y3959907D1*
X4681028Y4000099D1*
X4693379D2*
Y3959907D1*
X4706777D1*
X4712525Y3961852D1*
X4716371Y3965655D1*
X4718273Y3969502D1*
X4720174Y3975206D1*
Y3984800D1*
X4718273Y3990548D1*
X4716371Y3994351D1*
X4712525Y3998198D1*
X4706777Y4000099D1*
X4693379D1*
X4761221Y3990548D2*
X4759320Y3994351D1*
X4755473Y3998198D1*
X4751671Y4000099D1*
X4744021D1*
X4740175Y3998198D1*
X4736372Y3994351D1*
X4734427Y3990548D1*
X4732525Y3984800D1*
Y3975206D1*
X4734427Y3969502D1*
X4736372Y3965655D1*
X4740175Y3961852D1*
X4744021Y3959907D1*
X4751671D1*
X4755473Y3961852D1*
X4759320Y3965655D1*
X4761221Y3969502D1*
X2579177Y1646778D2*
D98*
X2612681Y1717037D1*
X2565791D1*
X2651010D2*
X2641028Y1713709D1*
X2637624Y1707055D1*
Y1700323D1*
X2641028Y1693669D1*
X2647683Y1690264D1*
X2661069Y1686937D1*
X2671128Y1683610D1*
X2677783Y1676878D1*
X2681110Y1670223D1*
Y1660164D1*
X2677783Y1653510D1*
X2674455Y1650105D1*
X2664396Y1646778D1*
X2651010D1*
X2641028Y1650105D1*
X2637624Y1653510D1*
X2634296Y1660164D1*
Y1670223D1*
X2637624Y1676878D1*
X2644355Y1683610D1*
X2654337Y1686937D1*
X2667723Y1690264D1*
X2674455Y1693669D1*
X2677783Y1700323D1*
Y1707055D1*
X2674455Y1713709D1*
X2664396Y1717037D1*
X2651010D1*
X2749615Y1707055D2*
X2742961Y1713787D1*
X2732902Y1717114D1*
X2719516D1*
X2709457Y1713787D1*
X2702725Y1707055D1*
Y1700400D1*
X2706129Y1693669D1*
X2709457Y1690341D1*
X2716111Y1687014D1*
X2736229Y1680282D1*
X2742961Y1676955D1*
X2746288Y1673551D1*
X2749615Y1666896D1*
Y1656837D1*
X2742961Y1650183D1*
X2732902Y1646778D1*
X2719516D1*
X2709457Y1650183D1*
X2702725Y1656837D1*
X2771230Y1683610D2*
X2801330D1*
X2811389Y1687014D1*
X2814794Y1690341D1*
X2818121Y1696996D1*
Y1703728D1*
X2814794Y1710382D1*
X2811389Y1713787D1*
X2801330Y1717114D1*
X2771230D1*
Y1646778D1*
X2794676Y1683610D2*
X2818121Y1646778D1*
X2839736Y1681907D2*
X2878425D1*
X2940198Y1717037D2*
X2906771D1*
X2903444Y1686937D1*
X2906771Y1690264D1*
X2916830Y1693669D1*
X2926812D1*
X2936871Y1690264D1*
X2943603Y1683610D1*
X2946930Y1673551D1*
Y1666896D1*
X2943603Y1656837D1*
X2936871Y1650105D1*
X2926812Y1646778D1*
X2916830D1*
X2906771Y1650105D1*
X2903444Y1653510D1*
X2900040Y1660164D1*
X3563853Y3237380D2*
D101*
X3539004D1*
Y3197188D1*
X3563853D1*
X3539004Y3218234D2*
X3554302D1*
X3602999Y3231632D2*
X3599197Y3235479D1*
X3593448Y3237380D1*
X3585799D1*
X3580051Y3235479D1*
X3576204Y3231632D1*
Y3227829D1*
X3578150Y3223982D1*
X3580051Y3222081D1*
X3583854Y3220180D1*
X3595350Y3216333D1*
X3599197Y3214432D1*
X3601098Y3212486D1*
X3602999Y3208684D1*
Y3202936D1*
X3599197Y3199133D1*
X3593448Y3197188D1*
X3585799D1*
X3580051Y3199133D1*
X3576204Y3202936D1*
X3615350Y3216333D2*
X3632595D1*
X3638298Y3218234D1*
X3640244Y3220180D1*
X3642145Y3223982D1*
Y3229730D1*
X3640244Y3233533D1*
X3638298Y3235479D1*
X3632595Y3237380D1*
X3615350D1*
Y3197188D1*
X3664047Y3237336D2*
X3658343Y3235434D1*
X3656398Y3231632D1*
Y3227785D1*
X3658343Y3223982D1*
X3662146Y3222037D1*
X3669795Y3220136D1*
X3675543Y3218234D1*
X3679346Y3214388D1*
X3681247Y3210585D1*
Y3204837D1*
X3679346Y3201035D1*
X3677444Y3199089D1*
X3671696Y3197188D1*
X3664047D1*
X3658343Y3199089D1*
X3656398Y3201035D1*
X3654497Y3204837D1*
Y3210585D1*
X3656398Y3214388D1*
X3660245Y3218234D1*
X3665948Y3220136D1*
X3673598Y3222037D1*
X3677444Y3223982D1*
X3679346Y3227785D1*
Y3231632D1*
X3677444Y3235434D1*
X3671696Y3237336D1*
X3664047D1*
X3695544Y3227785D2*
Y3229686D1*
X3697445Y3233533D1*
X3699346Y3235434D1*
X3703193Y3237336D1*
X3710842D1*
X3714645Y3235434D1*
X3716546Y3233533D1*
X3718492Y3229686D1*
Y3225884D1*
X3716546Y3222037D1*
X3712744Y3216333D1*
X3693598Y3197188D1*
X3720393D1*
X3755692Y3231632D2*
X3753791Y3235434D1*
X3748043Y3237336D1*
X3744240D1*
X3738492Y3235434D1*
X3734646Y3229686D1*
X3732744Y3220136D1*
Y3210585D1*
X3734646Y3202936D1*
X3738492Y3199089D1*
X3744240Y3197188D1*
X3746142D1*
X3751846Y3199089D1*
X3755692Y3202936D1*
X3757594Y3208684D1*
Y3210585D1*
X3755692Y3216333D1*
X3751846Y3220136D1*
X3746142Y3222037D1*
X3744240D1*
X3738492Y3220136D1*
X3734646Y3216333D1*
X3732744Y3210585D1*
X3792893Y3231632D2*
X3790992Y3235434D1*
X3785244Y3237336D1*
X3781441D1*
X3775693Y3235434D1*
X3771846Y3229686D1*
X3769945Y3220136D1*
Y3210585D1*
X3771846Y3202936D1*
X3775693Y3199089D1*
X3781441Y3197188D1*
X3783342D1*
X3789046Y3199089D1*
X3792893Y3202936D1*
X3794794Y3208684D1*
Y3210585D1*
X3792893Y3216333D1*
X3789046Y3220136D1*
X3783342Y3222037D1*
X3781441D1*
X3775693Y3220136D1*
X3771846Y3216333D1*
X3769945Y3210585D1*
X3846026Y3216333D2*
X3863270D1*
X3868974Y3218234D1*
X3870920Y3220180D1*
X3872821Y3223982D1*
Y3229730D1*
X3870920Y3233533D1*
X3868974Y3235479D1*
X3863270Y3237380D1*
X3846026D1*
Y3197188D1*
X3894723Y3223982D2*
X3890920Y3222081D1*
X3887074Y3218234D1*
X3885172Y3212486D1*
Y3208684D1*
X3887074Y3202936D1*
X3890920Y3199133D1*
X3894723Y3197188D1*
X3900471D1*
X3904318Y3199133D1*
X3908120Y3202936D1*
X3910066Y3208684D1*
Y3212486D1*
X3908120Y3218234D1*
X3904318Y3222081D1*
X3900471Y3223982D1*
X3894723D1*
X3922417D2*
X3930067Y3197188D1*
X3937716Y3223982D1*
X3945365Y3197188D1*
X3953014Y3223982D1*
X3965366Y3212486D2*
X3988314D1*
Y3216333D1*
X3986412Y3220180D1*
X3984511Y3222081D1*
X3980664Y3223982D1*
X3974916D1*
X3971114Y3222081D1*
X3967267Y3218234D1*
X3965366Y3212486D1*
Y3208684D1*
X3967267Y3202936D1*
X3971114Y3199133D1*
X3974916Y3197188D1*
X3980664D1*
X3984511Y3199133D1*
X3988314Y3202936D1*
X4000665Y3223982D2*
Y3197188D1*
Y3212486D2*
X4002611Y3218234D1*
X4006413Y3222081D1*
X4010260Y3223982D1*
X4016008D1*
X4078736Y3237380D2*
X4074889Y3235479D1*
X4071087Y3231632D1*
X4069141Y3227829D1*
X4067240Y3222081D1*
Y3212486D1*
X4069141Y3206783D1*
X4071087Y3202936D1*
X4074889Y3199133D1*
X4078736Y3197188D1*
X4086386D1*
X4090188Y3199133D1*
X4094035Y3202936D1*
X4095936Y3206783D1*
X4097837Y3212486D1*
Y3222081D1*
X4095936Y3227829D1*
X4094035Y3231632D1*
X4090188Y3235479D1*
X4086386Y3237380D1*
X4078736D1*
X4110189Y3223982D2*
Y3183790D1*
Y3218234D2*
X4114036Y3222037D1*
X4117838Y3223982D1*
X4123586D1*
X4127433Y3222037D1*
X4131235Y3218234D1*
X4133181Y3212486D1*
Y3208640D1*
X4131235Y3202936D1*
X4127433Y3199089D1*
X4123586Y3197188D1*
X4117838D1*
X4114036Y3199089D1*
X4110189Y3202936D1*
X4151280Y3237380D2*
Y3204837D1*
X4153182Y3199133D1*
X4157028Y3197188D1*
X4160831D1*
X4145532Y3223982D2*
X4158930D1*
X4173182Y3237380D2*
X4175084Y3235479D1*
X4177029Y3237380D1*
X4175084Y3239325D1*
X4173182Y3237380D1*
X4175084Y3223982D2*
Y3197188D1*
X4198931Y3223982D2*
X4195128Y3222081D1*
X4191282Y3218234D1*
X4189380Y3212486D1*
Y3208684D1*
X4191282Y3202936D1*
X4195128Y3199133D1*
X4198931Y3197188D1*
X4204679D1*
X4208526Y3199133D1*
X4212328Y3202936D1*
X4214274Y3208684D1*
Y3212486D1*
X4212328Y3218234D1*
X4208526Y3222081D1*
X4204679Y3223982D1*
X4198931D1*
X4226625D2*
Y3197188D1*
Y3216333D2*
X4232373Y3222081D1*
X4236220Y3223982D1*
X4241924D1*
X4245771Y3222081D1*
X4247672Y3216333D1*
Y3197188D1*
X4281070Y3218234D2*
X4279169Y3222081D1*
X4273421Y3223982D1*
X4267673D1*
X4261925Y3222081D1*
X4260023Y3218234D1*
X4261925Y3214432D1*
X4265771Y3212486D1*
X4275322Y3210585D1*
X4279169Y3208684D1*
X4281070Y3204837D1*
Y3202936D1*
X4279169Y3199133D1*
X4273421Y3197188D1*
X4267673D1*
X4261925Y3199133D1*
X4260023Y3202936D1*
X930144Y4265421D2*
D102*
X951733Y4174989D1*
X973222Y4265421D1*
X994710Y4174989D1*
X1016299Y4265421D1*
X1095722Y4235277D2*
Y4174989D1*
Y4222344D2*
X1087166Y4230999D1*
X1078511Y4235277D1*
X1065678D1*
X1057022Y4230999D1*
X1048467Y4222344D1*
X1044089Y4209411D1*
Y4200855D1*
X1048467Y4187922D1*
X1057022Y4179366D1*
X1065678Y4174989D1*
X1078511D1*
X1087166Y4179366D1*
X1095722Y4187922D1*
X1136446Y4265421D2*
Y4192200D1*
X1140724Y4179366D1*
X1149379Y4174989D1*
X1157935D1*
X1123513Y4235277D2*
X1153657D1*
X1185725Y4209411D2*
X1237358D1*
Y4218066D1*
X1233080Y4226721D1*
X1228802Y4230999D1*
X1220147Y4235277D1*
X1207214D1*
X1198658Y4230999D1*
X1190003Y4222344D1*
X1185725Y4209411D1*
Y4200855D1*
X1190003Y4187922D1*
X1198658Y4179366D1*
X1207214Y4174989D1*
X1220147D1*
X1228802Y4179366D1*
X1237358Y4187922D1*
X1265149Y4235277D2*
Y4174989D1*
Y4209411D2*
X1269526Y4222344D1*
X1278082Y4230999D1*
X1286737Y4235277D1*
X1299670D1*
X1327461Y4265421D2*
Y4174989D1*
X1366260D1*
X1379193Y4179366D1*
X1383471Y4183644D1*
X1387749Y4192200D1*
Y4205133D1*
X1383471Y4213788D1*
X1379193Y4218066D1*
X1366260Y4222344D1*
X1379193Y4226721D1*
X1383471Y4230999D1*
X1387749Y4239555D1*
Y4248210D1*
X1383471Y4256766D1*
X1379193Y4261143D1*
X1366260Y4265421D1*
X1327461D1*
Y4222344D2*
X1366260D1*
X1437028Y4235277D2*
X1428472Y4230999D1*
X1419817Y4222344D1*
X1415539Y4209411D1*
Y4200855D1*
X1419817Y4187922D1*
X1428472Y4179366D1*
X1437028Y4174989D1*
X1449961D1*
X1458616Y4179366D1*
X1467172Y4187922D1*
X1471549Y4200855D1*
Y4209411D1*
X1467172Y4222344D1*
X1458616Y4230999D1*
X1449961Y4235277D1*
X1437028D1*
X1512273Y4265421D2*
Y4192200D1*
X1516551Y4179366D1*
X1525206Y4174989D1*
X1533762D1*
X1499340Y4235277D2*
X1529484D1*
X1099835Y4042777D2*
X1125701Y3982489D1*
X1151468Y4042777D1*
X1183636Y4051333D2*
Y4055611D1*
X1187913Y4064266D1*
X1192191Y4068544D1*
X1200846Y4072822D1*
X1218057D1*
X1226613Y4068544D1*
X1230891Y4064266D1*
X1235268Y4055611D1*
Y4047055D1*
X1230891Y4038400D1*
X1222335Y4025566D1*
X1179258Y3982489D1*
X1239546D1*
X1271615Y3991144D2*
X1267337Y3986767D1*
X1271615Y3982489D1*
X1275992Y3986767D1*
X1271615Y3991144D1*
X1329649Y4072822D2*
X1316716Y4068544D1*
X1308061Y4055611D1*
X1303783Y4034122D1*
Y4021189D1*
X1308061Y3999700D1*
X1316716Y3986767D1*
X1329649Y3982489D1*
X1338205D1*
X1351138Y3986767D1*
X1359693Y3999700D1*
X1364071Y4021189D1*
Y4034122D1*
X1359693Y4055611D1*
X1351138Y4068544D1*
X1338205Y4072822D1*
X1329649D1*
X1359693Y4055611D2*
X1308061Y3999700D1*
X875609Y3880421D2*
X897197Y3789989D1*
X918686Y3880421D1*
X940175Y3789989D1*
X961763Y3880421D1*
X1041187Y3850277D2*
Y3789989D1*
Y3837344D2*
X1032631Y3845999D1*
X1023976Y3850277D1*
X1011142D1*
X1002487Y3845999D1*
X993931Y3837344D1*
X989554Y3824411D1*
Y3815855D1*
X993931Y3802922D1*
X1002487Y3794366D1*
X1011142Y3789989D1*
X1023976D1*
X1032631Y3794366D1*
X1041187Y3802922D1*
X1068977Y3850277D2*
Y3807200D1*
X1073255Y3794366D1*
X1081910Y3789989D1*
X1094843D1*
X1103399Y3794366D1*
X1116332Y3807200D1*
Y3850277D2*
Y3789989D1*
X1144123Y3850277D2*
Y3789989D1*
Y3833066D2*
X1157056Y3845999D1*
X1165711Y3850277D1*
X1178545D1*
X1187200Y3845999D1*
X1191478Y3833066D1*
Y3789989D1*
X1311128Y3858833D2*
Y3863111D1*
X1315405Y3871766D1*
X1319683Y3876044D1*
X1328338Y3880322D1*
X1345549D1*
X1354105Y3876044D1*
X1358383Y3871766D1*
X1362760Y3863111D1*
Y3854555D1*
X1358383Y3845900D1*
X1349827Y3833066D1*
X1306750Y3789989D1*
X1367038D1*
X1420695Y3880322D2*
X1407762Y3876044D1*
X1399107Y3863111D1*
X1394829Y3841622D1*
Y3828689D1*
X1399107Y3807200D1*
X1407762Y3794267D1*
X1420695Y3789989D1*
X1429251D1*
X1442184Y3794267D1*
X1450739Y3807200D1*
X1455117Y3828689D1*
Y3841622D1*
X1450739Y3863111D1*
X1442184Y3876044D1*
X1429251Y3880322D1*
X1420695D1*
X1450739Y3863111D2*
X1399107Y3807200D1*
X1482907Y3863111D2*
X1491563Y3867488D1*
X1504496Y3880322D1*
Y3789989D1*
X1588297Y3850277D2*
X1583919Y3837344D1*
X1575363Y3828689D1*
X1562430Y3824411D1*
X1558153D1*
X1545219Y3828689D1*
X1536664Y3837344D1*
X1532286Y3850277D1*
Y3854555D1*
X1536664Y3867488D1*
X1545219Y3876044D1*
X1558153Y3880322D1*
X1562430D1*
X1575363Y3876044D1*
X1583919Y3867488D1*
X1588297Y3850277D1*
Y3828689D1*
X1583919Y3807200D1*
X1575363Y3794267D1*
X1562430Y3789989D1*
X1553875D1*
X1540942Y3794267D1*
X1536664Y3802922D1*
X4579765Y1582205D2*
D98*
Y1511869D1*
X4556320Y1582205D2*
X4603210D1*
X4624825Y1558759D2*
Y1511869D1*
Y1538641D2*
X4628230Y1548700D1*
X4634884Y1555432D1*
X4641616Y1558759D1*
X4651675D1*
X4673290Y1538641D2*
X4713449D1*
Y1545373D1*
X4710122Y1552105D1*
X4706795Y1555432D1*
X4700063Y1558759D1*
X4690004D1*
X4683349Y1555432D1*
X4676617Y1548700D1*
X4673290Y1538641D1*
Y1531987D1*
X4676617Y1521928D1*
X4683349Y1515273D1*
X4690004Y1511869D1*
X4700063D1*
X4706795Y1515273D1*
X4713449Y1521928D1*
X4735064Y1538641D2*
X4775223D1*
Y1545373D1*
X4771896Y1552105D1*
X4768568Y1555432D1*
X4761837Y1558759D1*
X4751777D1*
X4745123Y1555432D1*
X4738391Y1548700D1*
X4735064Y1538641D1*
Y1531987D1*
X4738391Y1521928D1*
X4745123Y1515273D1*
X4751777Y1511869D1*
X4761837D1*
X4768568Y1515273D1*
X4775223Y1521928D1*
X4573210Y1467146D2*
X4566556Y1473877D1*
X4556497Y1477205D1*
X4543111D1*
X4533052Y1473877D1*
X4526320Y1467146D1*
Y1460491D1*
X4529724Y1453759D1*
X4533052Y1450432D1*
X4539706Y1447105D1*
X4559824Y1440373D1*
X4566556Y1437046D1*
X4569883Y1433641D1*
X4573210Y1426987D1*
Y1416928D1*
X4566556Y1410273D1*
X4556497Y1406869D1*
X4543111D1*
X4533052Y1410273D1*
X4526320Y1416928D1*
X4594825Y1453759D2*
X4608212Y1406869D1*
X4621598Y1453759D1*
X4634984Y1406869D1*
X4648370Y1453759D1*
X4669985Y1477205D2*
X4673313Y1473877D1*
X4676717Y1477205D1*
X4673313Y1480609D1*
X4669985Y1477205D1*
X4673313Y1453759D2*
Y1406869D1*
X4708391Y1477205D2*
Y1420255D1*
X4711718Y1410273D1*
X4718450Y1406869D1*
X4725105D1*
X4698332Y1453759D2*
X4721777D1*
X4786956Y1443700D2*
X4780224Y1450432D1*
X4773492Y1453759D1*
X4763511D1*
X4756779Y1450432D1*
X4750124Y1443700D1*
X4746720Y1433641D1*
Y1426987D1*
X4750124Y1416928D1*
X4756779Y1410273D1*
X4763511Y1406869D1*
X4773492D1*
X4780224Y1410273D1*
X4786956Y1416928D1*
X4808571Y1477205D2*
Y1406869D1*
Y1440373D2*
X4818630Y1450432D1*
X4825362Y1453759D1*
X4835421D1*
X4842075Y1450432D1*
X4845402Y1440373D1*
Y1406869D1*
X4694233Y1910055D2*
D101*
X4675131D1*
X4673230Y1892855D1*
X4675131Y1894756D1*
X4680879Y1896702D1*
X4686583D1*
X4692331Y1894756D1*
X4696178Y1890954D1*
X4698079Y1885206D1*
Y1881403D1*
X4696178Y1875655D1*
X4692331Y1871808D1*
X4686583Y1869907D1*
X4680879D1*
X4675131Y1871808D1*
X4673230Y1873754D1*
X4671285Y1877556D1*
X4710431Y1910099D2*
X4725729Y1869907D1*
X4741028Y1910099D1*
X4748079Y2009351D2*
X4744277Y2013198D1*
X4738529Y2015099D1*
X4730879D1*
X4725131Y2013198D1*
X4721285Y2009351D1*
Y2005548D1*
X4723230Y2001702D1*
X4725131Y1999800D1*
X4728934Y1997899D1*
X4740430Y1994052D1*
X4744277Y1992151D1*
X4746178Y1990206D1*
X4748079Y1986403D1*
Y1980655D1*
X4744277Y1976852D1*
X4738529Y1974907D1*
X4730879D1*
X4725131Y1976852D1*
X4721285Y1980655D1*
X4760431Y2015099D2*
X4762332Y2013198D1*
X4764277Y2015099D1*
X4762332Y2017044D1*
X4760431Y2015099D1*
X4762332Y2001702D2*
Y1974907D1*
X4799577Y1999800D2*
Y1969159D1*
X4797676Y1963455D1*
X4795774Y1961510D1*
X4791927Y1959608D1*
X4786179D1*
X4782377Y1961510D1*
X4799577Y1994052D2*
X4795774Y1997855D1*
X4791927Y1999800D1*
X4786179D1*
X4782377Y1997855D1*
X4778530Y1994052D1*
X4776629Y1988304D1*
Y1984458D1*
X4778530Y1978754D1*
X4782377Y1974907D1*
X4786179Y1973006D1*
X4791927D1*
X4795774Y1974907D1*
X4799577Y1978754D1*
X4794981Y2115548D2*
X4793079Y2119351D1*
X4789233Y2123198D1*
X4785430Y2125099D1*
X4777781D1*
X4773934Y2123198D1*
X4770131Y2119351D1*
X4768186Y2115548D1*
X4766285Y2109800D1*
Y2100206D1*
X4768186Y2094502D1*
X4770131Y2090655D1*
X4773934Y2086852D1*
X4777781Y2084907D1*
X4785430D1*
X4789233Y2086852D1*
X4793079Y2090655D1*
X4794981Y2094502D1*
Y2100206D1*
X4785430D1*
X4807332Y2111702D2*
Y2084907D1*
Y2104052D2*
X4813080Y2109800D1*
X4816927Y2111702D1*
X4822631D1*
X4826477Y2109800D1*
X4828379Y2104052D1*
Y2084907D1*
X4863678Y2125099D2*
Y2084907D1*
Y2105954D2*
X4859875Y2109800D1*
X4856029Y2111702D1*
X4850281D1*
X4846478Y2109800D1*
X4842631Y2105954D1*
X4840730Y2100206D1*
Y2096403D1*
X4842631Y2090655D1*
X4846478Y2086852D1*
X4850281Y2084907D1*
X4856029D1*
X4859875Y2086852D1*
X4863678Y2090655D1*
X4218672Y4467833D2*
D12*
Y4437689D1*
X4238768Y4467833D2*
Y4437689D1*
X4218672Y4453474D2*
X4238768D1*
X4244768Y4467833D2*
X4256242Y4437689D1*
X4267716Y4467833D1*
X4273716Y4462063D2*
X4276601Y4463522D1*
X4280912Y4467800D1*
Y4437689D1*
X4205776Y4367827D2*
Y4337683D1*
X4225872Y4367827D2*
Y4337683D1*
X4205776Y4353468D2*
X4225872D1*
X4231872Y4367827D2*
X4243346Y4337683D1*
X4254820Y4367827D1*
X4262279Y4360631D2*
Y4362057D1*
X4263705Y4364942D1*
X4265131Y4366368D1*
X4268016Y4367794D1*
X4273753D1*
X4276605Y4366368D1*
X4278031Y4364942D1*
X4279490Y4362057D1*
Y4359205D1*
X4278031Y4356320D1*
X4275179Y4352042D1*
X4260820Y4337683D1*
X4280916D1*
X4215532Y4268422D2*
D103*
Y4228230D1*
X4242327Y4268422D2*
Y4228230D1*
X4215532Y4249276D2*
X4242327D1*
X4250327Y4268422D2*
X4265625Y4228230D1*
X4280924Y4268422D1*
X4135444Y4158927D2*
X4133543Y4162730D1*
X4129696Y4166576D1*
X4125893Y4168478D1*
X4118244D1*
X4114397Y4166576D1*
X4110595Y4162730D1*
X4108649Y4158927D1*
X4106748Y4153179D1*
Y4143584D1*
X4108649Y4137880D1*
X4110595Y4134034D1*
X4114397Y4130231D1*
X4118244Y4128286D1*
X4125893D1*
X4129696Y4130231D1*
X4133543Y4134034D1*
X4135444Y4137880D1*
Y4143584D1*
X4125893D1*
X4170239Y4168478D2*
Y4128286D1*
X4143444Y4168478D1*
Y4128286D1*
X4178239Y4168478D2*
Y4128286D1*
X4191636D1*
X4197384Y4130231D1*
X4201231Y4134034D1*
X4203132Y4137880D1*
X4205033Y4143584D1*
Y4153179D1*
X4203132Y4158927D1*
X4201231Y4162730D1*
X4197384Y4166576D1*
X4191636Y4168478D1*
X4178239D1*
X4205776Y4067809D2*
D12*
Y4037665D1*
X4225872Y4067809D2*
Y4037665D1*
X4205776Y4053450D2*
X4225872D1*
X4231872Y4067809D2*
X4243346Y4037665D1*
X4254820Y4067809D1*
X4263705Y4067776D2*
X4279457D1*
X4270868Y4056302D1*
X4275179D1*
X4278031Y4054876D1*
X4279457Y4053450D1*
X4280916Y4049139D1*
Y4046287D1*
X4279457Y4041976D1*
X4276605Y4039091D1*
X4272294Y4037665D1*
X4267983D1*
X4263705Y4039091D1*
X4262279Y4040550D1*
X4260820Y4043402D1*
X4204372Y3967803D2*
Y3937659D1*
X4224468Y3967803D2*
Y3937659D1*
X4204372Y3953444D2*
X4224468D1*
X4230468Y3967803D2*
X4241942Y3937659D1*
X4253416Y3967803D1*
X4273775Y3937659D2*
Y3967770D1*
X4259416Y3947707D1*
X4280938D1*
X4030900Y4467833D2*
Y4437689D1*
X4048111D1*
X4054111Y4467833D2*
X4065585Y4437689D1*
X4077059Y4467833D1*
X4083059Y4462063D2*
X4085944Y4463522D1*
X4090255Y4467800D1*
Y4437689D1*
X4030900Y4367827D2*
Y4337683D1*
X4048111D1*
X4054111Y4367827D2*
X4065585Y4337683D1*
X4077059Y4367827D1*
X4084518Y4360631D2*
Y4362057D1*
X4085944Y4364942D1*
X4087370Y4366368D1*
X4090255Y4367794D1*
X4095992D1*
X4098844Y4366368D1*
X4100270Y4364942D1*
X4101729Y4362057D1*
Y4359205D1*
X4100270Y4356320D1*
X4097418Y4352042D1*
X4083059Y4337683D1*
X4103155D1*
X4030932Y4268422D2*
D103*
Y4228230D1*
X4053880D1*
X4061880Y4268422D2*
X4077178Y4228230D1*
X4092477Y4268422D1*
X4030900Y4067809D2*
D12*
Y4037665D1*
X4048111D1*
X4054111Y4067809D2*
X4065585Y4037665D1*
X4077059Y4067809D1*
X4085944Y4067776D2*
X4101696D1*
X4093107Y4056302D1*
X4097418D1*
X4100270Y4054876D1*
X4101696Y4053450D1*
X4103155Y4049139D1*
Y4046287D1*
X4101696Y4041976D1*
X4098844Y4039091D1*
X4094533Y4037665D1*
X4090222D1*
X4085944Y4039091D1*
X4084518Y4040550D1*
X4083059Y4043402D1*
X4030900Y3967803D2*
Y3937659D1*
X4048111D1*
X4054111Y3967803D2*
X4065585Y3937659D1*
X4077059Y3967803D1*
X4097418Y3937659D2*
Y3967770D1*
X4083059Y3947707D1*
X4104581D1*
M02*
